G04 #@! TF.GenerationSoftware,KiCad,Pcbnew,no-vcs-found-4b010ca~60~ubuntu16.04.1*
G04 #@! TF.CreationDate,2017-10-03T11:45:03+03:00*
G04 #@! TF.ProjectId,TuxCon_Kitty_Rev_A,547578436F6E5F4B697474795F526576,rev?*
G04 #@! TF.SameCoordinates,Original*
G04 #@! TF.FileFunction,Copper,L2,Bot,Signal*
G04 #@! TF.FilePolarity,Positive*
%FSLAX46Y46*%
G04 Gerber Fmt 4.6, Leading zero omitted, Abs format (unit mm)*
G04 Created by KiCad (PCBNEW no-vcs-found-4b010ca~60~ubuntu16.04.1) date Tue Oct  3 11:45:03 2017*
%MOMM*%
%LPD*%
G01*
G04 APERTURE LIST*
%ADD10R,3.000000X5.080000*%
%ADD11R,1.524000X3.810000*%
%ADD12C,7.000000*%
%ADD13R,2.200000X0.600000*%
%ADD14C,1.524000*%
%ADD15R,1.524000X1.524000*%
%ADD16C,1.110000*%
%ADD17C,1.110000*%
%ADD18C,16.500000*%
%ADD19R,1.778000X1.524000*%
%ADD20R,1.000000X1.700000*%
%ADD21R,1.524000X1.778000*%
%ADD22C,0.800000*%
%ADD23C,0.508000*%
%ADD24C,0.254000*%
G04 APERTURE END LIST*
D10*
X120150000Y-81788000D03*
X132850000Y-81788000D03*
D11*
X125230000Y-82423000D03*
X127770000Y-82423000D03*
D12*
X126500000Y-60579000D03*
D13*
X124276500Y-65976500D03*
X124276500Y-67246500D03*
X124276500Y-68516500D03*
X124276500Y-69786500D03*
X130746500Y-69786500D03*
X130746500Y-68516500D03*
X130746500Y-67246500D03*
X130746500Y-65976500D03*
D14*
X110490000Y-67310000D03*
D15*
X110490000Y-69850000D03*
X141478000Y-69786500D03*
D14*
X141478000Y-67246500D03*
D16*
X120304007Y-45748493D03*
D17*
X121346990Y-46791476D02*
X119261024Y-44705510D01*
D18*
X113030000Y-53022500D03*
D16*
X105755993Y-60296507D03*
D17*
X106798976Y-61339490D02*
X104713010Y-59253524D01*
D14*
X142752513Y-46268936D03*
X144548564Y-48064987D03*
D19*
X119761000Y-74104500D03*
X119761000Y-76898500D03*
X117094000Y-76898500D03*
X117094000Y-74104500D03*
D20*
X129221500Y-47625000D03*
X125921500Y-47625000D03*
X110237000Y-78232000D03*
X113537000Y-78232000D03*
X110237000Y-74041000D03*
X113537000Y-74041000D03*
D19*
X145097500Y-67246500D03*
X145097500Y-64452500D03*
X106807000Y-64516000D03*
X106807000Y-67310000D03*
D21*
X119824500Y-69977000D03*
X117030500Y-69977000D03*
X119824500Y-67246500D03*
X117030500Y-67246500D03*
D19*
X134175500Y-65976500D03*
X134175500Y-63182500D03*
X122745500Y-76962000D03*
X122745500Y-74168000D03*
X125222000Y-74168000D03*
X125222000Y-76962000D03*
D22*
X119824500Y-72072500D03*
X132715000Y-62865000D03*
X115062000Y-65976500D03*
X117560000Y-78870002D03*
X137200000Y-64580000D03*
X114998500Y-64516000D03*
X123380500Y-82423000D03*
D23*
X125921500Y-47625000D02*
X122180514Y-47625000D01*
X122180514Y-47625000D02*
X120304007Y-45748493D01*
X127770000Y-82423000D02*
X127770000Y-79113000D01*
X127770000Y-79113000D02*
X134556500Y-72326500D01*
X134556500Y-72326500D02*
X134556500Y-69786500D01*
X141478000Y-69786500D02*
X134556500Y-69786500D01*
X134556500Y-69786500D02*
X130746500Y-69786500D01*
X124276500Y-69786500D02*
X125884500Y-69786500D01*
X135246702Y-64579500D02*
X140462000Y-59364202D01*
X125884500Y-69786500D02*
X128270000Y-67401000D01*
X128270000Y-67401000D02*
X128270000Y-65786000D01*
X128270000Y-65786000D02*
X129476500Y-64579500D01*
X129476500Y-64579500D02*
X135246702Y-64579500D01*
X140462000Y-59364202D02*
X140462000Y-48559449D01*
X140462000Y-48559449D02*
X142752513Y-46268936D01*
X119824500Y-72072500D02*
X119824500Y-74168000D01*
X119824500Y-69977000D02*
X119824500Y-72072500D01*
X119824500Y-74168000D02*
X122745500Y-74168000D01*
D24*
X123380500Y-72009000D02*
X122745500Y-72644000D01*
X122745500Y-72644000D02*
X122745500Y-74168000D01*
X124630000Y-72009000D02*
X123380500Y-72009000D01*
X130746500Y-67246500D02*
X129392500Y-67246500D01*
X129392500Y-67246500D02*
X124630000Y-72009000D01*
D23*
X132715000Y-62865000D02*
X132715000Y-50110500D01*
X132715000Y-50110500D02*
X130229500Y-47625000D01*
X130229500Y-47625000D02*
X129221500Y-47625000D01*
X132715000Y-62865000D02*
X133858000Y-62865000D01*
X133858000Y-62865000D02*
X134175500Y-63182500D01*
X124276500Y-65976500D02*
X122668500Y-65976500D01*
X115062000Y-65976500D02*
X115062000Y-74041000D01*
X122668500Y-65976500D02*
X122033500Y-65341500D01*
X122033500Y-65341500D02*
X115697000Y-65341500D01*
X115697000Y-65341500D02*
X115062000Y-65976500D01*
X113601500Y-74041000D02*
X115062000Y-74041000D01*
X115062000Y-74041000D02*
X117094000Y-74041000D01*
X110236000Y-74041000D02*
X110237000Y-74042000D01*
X110237000Y-74042000D02*
X110237000Y-78232000D01*
X117160001Y-78470003D02*
X117560000Y-78870002D01*
X116921998Y-78232000D02*
X117160001Y-78470003D01*
X113537000Y-78232000D02*
X116921998Y-78232000D01*
X141478000Y-67246500D02*
X145097500Y-67246500D01*
X106807000Y-67310000D02*
X110490000Y-67310000D01*
X137327500Y-64452500D02*
X137200000Y-64580000D01*
X145097500Y-64452500D02*
X137327500Y-64452500D01*
X124276500Y-68516500D02*
X125666500Y-68516500D01*
X122209277Y-64516000D02*
X114998500Y-64516000D01*
X125666500Y-68516500D02*
X126428500Y-67754500D01*
X126428500Y-67754500D02*
X126428500Y-65659000D01*
X126428500Y-65659000D02*
X125302501Y-64533001D01*
X125302501Y-64533001D02*
X122226278Y-64533001D01*
X122226278Y-64533001D02*
X122209277Y-64516000D01*
X114998500Y-64516000D02*
X106807000Y-64516000D01*
X117030500Y-69977000D02*
X117030500Y-67246500D01*
X124276500Y-67246500D02*
X119824500Y-67246500D01*
X130746500Y-65976500D02*
X134175500Y-65976500D01*
X122745500Y-76962000D02*
X122745500Y-81788000D01*
X122745500Y-81788000D02*
X123380500Y-82423000D01*
D24*
X130746500Y-68516500D02*
X128841500Y-68516500D01*
X128841500Y-68516500D02*
X125222000Y-72136000D01*
X125222000Y-72136000D02*
X125222000Y-74168000D01*
D23*
X125222000Y-76962000D02*
X125222000Y-82415000D01*
X125222000Y-82415000D02*
X125230000Y-82423000D01*
D24*
G36*
X136076171Y-35056320D02*
X136957136Y-35331622D01*
X138095505Y-35900806D01*
X139416146Y-37049190D01*
X140364751Y-38472098D01*
X141177400Y-39909860D01*
X141263121Y-40009429D01*
X141346767Y-40110716D01*
X141353311Y-40114188D01*
X141358145Y-40119803D01*
X141475431Y-40178982D01*
X141591483Y-40240557D01*
X141598859Y-40241261D01*
X141605473Y-40244598D01*
X141736462Y-40254387D01*
X141867259Y-40266864D01*
X141874344Y-40264691D01*
X141881731Y-40265243D01*
X142006498Y-40224159D01*
X142132111Y-40185634D01*
X142940709Y-39750236D01*
X143991579Y-39255709D01*
X144861252Y-38882992D01*
X145792093Y-38510656D01*
X146857803Y-38134523D01*
X146860751Y-38132773D01*
X146864138Y-38132253D01*
X147553606Y-37881537D01*
X148094316Y-37701300D01*
X149258116Y-37395037D01*
X149535418Y-37339577D01*
X149910457Y-37286000D01*
X150217096Y-37286000D01*
X150359845Y-37321687D01*
X150415173Y-37340130D01*
X150504891Y-37407419D01*
X150683333Y-37630471D01*
X150895726Y-37949060D01*
X151488391Y-39134390D01*
X151719568Y-39827920D01*
X151961351Y-40734607D01*
X152207462Y-42026689D01*
X152459136Y-43788409D01*
X152488678Y-43872390D01*
X152506046Y-43959705D01*
X152534231Y-44001887D01*
X152551064Y-44049740D01*
X152610492Y-44116020D01*
X152659954Y-44190046D01*
X152702135Y-44218230D01*
X152736000Y-44256000D01*
X152816273Y-44294494D01*
X152890295Y-44343954D01*
X152940051Y-44353851D01*
X152985792Y-44375786D01*
X153074682Y-44380631D01*
X153162000Y-44398000D01*
X154483781Y-44398000D01*
X155211100Y-44553854D01*
X156229386Y-45062997D01*
X157108842Y-45667623D01*
X157531836Y-46231614D01*
X157861064Y-47383911D01*
X157976500Y-48365122D01*
X157976500Y-49551879D01*
X157859674Y-50544900D01*
X157623312Y-51490348D01*
X157205052Y-52745128D01*
X156357167Y-54380334D01*
X155155291Y-56243242D01*
X153762769Y-57514675D01*
X153692189Y-57610573D01*
X153616365Y-57702389D01*
X153610471Y-57721606D01*
X153598560Y-57737790D01*
X153570051Y-57853398D01*
X153535136Y-57967241D01*
X153537044Y-57987246D01*
X153532232Y-58006761D01*
X153550136Y-58124481D01*
X153561443Y-58243017D01*
X153743741Y-58850676D01*
X153928260Y-59711766D01*
X153933105Y-59722991D01*
X153933699Y-59735200D01*
X154121278Y-60485519D01*
X154307565Y-61354854D01*
X154552628Y-62641438D01*
X154613091Y-63427455D01*
X154643241Y-63535086D01*
X154665046Y-63644705D01*
X154680375Y-63667646D01*
X154687817Y-63694214D01*
X154756857Y-63782111D01*
X154818954Y-63875046D01*
X154841894Y-63890374D01*
X154858938Y-63912073D01*
X154956366Y-63966861D01*
X155049295Y-64028954D01*
X155076355Y-64034337D01*
X155100405Y-64047861D01*
X155211379Y-64061195D01*
X155321000Y-64083000D01*
X156574113Y-64083000D01*
X157848987Y-64143708D01*
X158436805Y-64241678D01*
X158563758Y-64317850D01*
X158694150Y-64448242D01*
X158810412Y-64642012D01*
X158823393Y-64674463D01*
X158738887Y-64702632D01*
X157924500Y-64756924D01*
X157019228Y-64696573D01*
X156995486Y-64699672D01*
X156972000Y-64695000D01*
X155257500Y-64695000D01*
X154985795Y-64749046D01*
X154755454Y-64902954D01*
X154601546Y-65133295D01*
X154547500Y-65405000D01*
X154547500Y-66391462D01*
X154487264Y-67114302D01*
X154425381Y-67671252D01*
X154363256Y-68168251D01*
X154301806Y-68598401D01*
X154245565Y-68935850D01*
X154064518Y-69599687D01*
X154056444Y-69715000D01*
X154040806Y-69829528D01*
X154046822Y-69852422D01*
X154045169Y-69876038D01*
X154081838Y-69985664D01*
X154111217Y-70097458D01*
X154125537Y-70116307D01*
X154133047Y-70138759D01*
X154208880Y-70226010D01*
X154278803Y-70318048D01*
X154299247Y-70329983D01*
X154314776Y-70347850D01*
X154418214Y-70399434D01*
X154518047Y-70457715D01*
X156323344Y-71080231D01*
X157339825Y-71558576D01*
X157995407Y-71940999D01*
X157998166Y-71943758D01*
X158025383Y-72107063D01*
X158016602Y-72142188D01*
X158000913Y-72173565D01*
X157770787Y-72140690D01*
X156884029Y-71845104D01*
X155619049Y-71402361D01*
X155595638Y-71399054D01*
X155574527Y-71388402D01*
X154431527Y-71070902D01*
X154405162Y-71068932D01*
X154380743Y-71058787D01*
X154267844Y-71058669D01*
X154155269Y-71050256D01*
X154130155Y-71058526D01*
X154103715Y-71058498D01*
X153999374Y-71101590D01*
X153892139Y-71136900D01*
X153872101Y-71154152D01*
X153847663Y-71164244D01*
X153767752Y-71243988D01*
X153682197Y-71317645D01*
X153670286Y-71341251D01*
X153651570Y-71359928D01*
X153608259Y-71464180D01*
X153557402Y-71564973D01*
X153555431Y-71591341D01*
X153545288Y-71615757D01*
X153493048Y-71876957D01*
X153141914Y-72813313D01*
X152717121Y-73723584D01*
X152239825Y-74618515D01*
X151949249Y-75025321D01*
X151926246Y-75076298D01*
X151891957Y-75120478D01*
X151701457Y-75501478D01*
X151679652Y-75581101D01*
X151645412Y-75656221D01*
X151643410Y-75713446D01*
X151628287Y-75768669D01*
X151638612Y-75850573D01*
X151635725Y-75933080D01*
X151655774Y-75986714D01*
X151662935Y-76043522D01*
X151703819Y-76115243D01*
X151732725Y-76192571D01*
X151771772Y-76234449D01*
X151800128Y-76284193D01*
X151865347Y-76334809D01*
X151921644Y-76395189D01*
X153488757Y-77523511D01*
X153786759Y-77771845D01*
X153889088Y-77908284D01*
X153952602Y-78035312D01*
X153976000Y-78128904D01*
X153976000Y-78208096D01*
X153960229Y-78271179D01*
X153916166Y-78315242D01*
X153886489Y-78335027D01*
X153836596Y-78347500D01*
X153740303Y-78347500D01*
X153584977Y-78316435D01*
X153192195Y-78120044D01*
X152712799Y-77820421D01*
X152706657Y-77818093D01*
X152701792Y-77813680D01*
X152074790Y-77437479D01*
X151384182Y-76998000D01*
X151275203Y-76955684D01*
X151169076Y-76906697D01*
X151146759Y-76905809D01*
X151125939Y-76897725D01*
X151009073Y-76900334D01*
X150892266Y-76895688D01*
X150871308Y-76903409D01*
X150848979Y-76903907D01*
X150742004Y-76951042D01*
X150632315Y-76991449D01*
X150615907Y-77006602D01*
X150595469Y-77015607D01*
X150514677Y-77100088D01*
X150428797Y-77179398D01*
X149953562Y-77832846D01*
X149377232Y-78409176D01*
X148526499Y-79138376D01*
X147809984Y-79675762D01*
X146701977Y-80352877D01*
X145966016Y-80782188D01*
X144862144Y-81334124D01*
X144003402Y-81702156D01*
X142896645Y-82132562D01*
X141465047Y-82568266D01*
X140408843Y-82878914D01*
X139603850Y-83064682D01*
X139597860Y-83067380D01*
X139591300Y-83067699D01*
X138591688Y-83317602D01*
X137353848Y-83565170D01*
X136547783Y-83689180D01*
X135692976Y-83811295D01*
X134985000Y-83850627D01*
X134985000Y-82073750D01*
X134826250Y-81915000D01*
X132977000Y-81915000D01*
X132977000Y-81935000D01*
X132723000Y-81935000D01*
X132723000Y-81915000D01*
X130873750Y-81915000D01*
X130715000Y-82073750D01*
X130715000Y-83872000D01*
X129167000Y-83872000D01*
X129167000Y-82708750D01*
X129008250Y-82550000D01*
X127897000Y-82550000D01*
X127897000Y-82570000D01*
X127643000Y-82570000D01*
X127643000Y-82550000D01*
X127623000Y-82550000D01*
X127623000Y-82296000D01*
X127643000Y-82296000D01*
X127643000Y-80041750D01*
X127897000Y-80041750D01*
X127897000Y-82296000D01*
X129008250Y-82296000D01*
X129167000Y-82137250D01*
X129167000Y-80391690D01*
X129070327Y-80158301D01*
X128891698Y-79979673D01*
X128658309Y-79883000D01*
X128055750Y-79883000D01*
X127897000Y-80041750D01*
X127643000Y-80041750D01*
X127484250Y-79883000D01*
X126881691Y-79883000D01*
X126648302Y-79979673D01*
X126497063Y-80130911D01*
X126449809Y-80060191D01*
X126239765Y-79919843D01*
X126111000Y-79894230D01*
X126111000Y-79121690D01*
X130715000Y-79121690D01*
X130715000Y-81502250D01*
X130873750Y-81661000D01*
X132723000Y-81661000D01*
X132723000Y-78771750D01*
X132977000Y-78771750D01*
X132977000Y-81661000D01*
X134826250Y-81661000D01*
X134985000Y-81502250D01*
X134985000Y-79121690D01*
X134888327Y-78888301D01*
X134709698Y-78709673D01*
X134476309Y-78613000D01*
X133135750Y-78613000D01*
X132977000Y-78771750D01*
X132723000Y-78771750D01*
X132564250Y-78613000D01*
X131223691Y-78613000D01*
X130990302Y-78709673D01*
X130811673Y-78888301D01*
X130715000Y-79121690D01*
X126111000Y-79121690D01*
X126111000Y-78371440D01*
X126358765Y-78322157D01*
X126568809Y-78181809D01*
X126709157Y-77971765D01*
X126758440Y-77724000D01*
X126758440Y-76200000D01*
X126709157Y-75952235D01*
X126568809Y-75742191D01*
X126358765Y-75601843D01*
X126173541Y-75565000D01*
X126358765Y-75528157D01*
X126568809Y-75387809D01*
X126709157Y-75177765D01*
X126758440Y-74930000D01*
X126758440Y-73406000D01*
X126709157Y-73158235D01*
X126568809Y-72948191D01*
X126358765Y-72807843D01*
X126111000Y-72758560D01*
X125984000Y-72758560D01*
X125984000Y-72451630D01*
X128363380Y-70072250D01*
X129011500Y-70072250D01*
X129011500Y-70212809D01*
X129108173Y-70446198D01*
X129286801Y-70624827D01*
X129520190Y-70721500D01*
X130460750Y-70721500D01*
X130619500Y-70562750D01*
X130619500Y-69913500D01*
X130873500Y-69913500D01*
X130873500Y-70562750D01*
X131032250Y-70721500D01*
X131972810Y-70721500D01*
X132206199Y-70624827D01*
X132384827Y-70446198D01*
X132481500Y-70212809D01*
X132481500Y-70072250D01*
X140081000Y-70072250D01*
X140081000Y-70674809D01*
X140177673Y-70908198D01*
X140356301Y-71086827D01*
X140589690Y-71183500D01*
X141192250Y-71183500D01*
X141351000Y-71024750D01*
X141351000Y-69913500D01*
X141605000Y-69913500D01*
X141605000Y-71024750D01*
X141763750Y-71183500D01*
X142366310Y-71183500D01*
X142599699Y-71086827D01*
X142778327Y-70908198D01*
X142875000Y-70674809D01*
X142875000Y-70072250D01*
X142716250Y-69913500D01*
X141605000Y-69913500D01*
X141351000Y-69913500D01*
X140239750Y-69913500D01*
X140081000Y-70072250D01*
X132481500Y-70072250D01*
X132322750Y-69913500D01*
X130873500Y-69913500D01*
X130619500Y-69913500D01*
X129170250Y-69913500D01*
X129011500Y-70072250D01*
X128363380Y-70072250D01*
X129011500Y-69424130D01*
X129011500Y-69500750D01*
X129170250Y-69659500D01*
X130619500Y-69659500D01*
X130619500Y-69639500D01*
X130873500Y-69639500D01*
X130873500Y-69659500D01*
X132322750Y-69659500D01*
X132481500Y-69500750D01*
X132481500Y-69360191D01*
X132391732Y-69143472D01*
X132444657Y-69064265D01*
X132493940Y-68816500D01*
X132493940Y-68216500D01*
X132444657Y-67968735D01*
X132386368Y-67881500D01*
X132444657Y-67794265D01*
X132493940Y-67546500D01*
X132493940Y-66946500D01*
X132477828Y-66865500D01*
X132664322Y-66865500D01*
X132688343Y-66986265D01*
X132828691Y-67196309D01*
X133038735Y-67336657D01*
X133286500Y-67385940D01*
X135064500Y-67385940D01*
X135312265Y-67336657D01*
X135522309Y-67196309D01*
X135662657Y-66986265D01*
X135711940Y-66738500D01*
X135711940Y-65317285D01*
X135875320Y-65208118D01*
X136203897Y-64879541D01*
X136322058Y-65165515D01*
X136612954Y-65456919D01*
X136993223Y-65614820D01*
X137404971Y-65615179D01*
X137785515Y-65457942D01*
X137902160Y-65341500D01*
X143586322Y-65341500D01*
X143610343Y-65462265D01*
X143750691Y-65672309D01*
X143960735Y-65812657D01*
X144145959Y-65849500D01*
X143960735Y-65886343D01*
X143750691Y-66026691D01*
X143610343Y-66236735D01*
X143586322Y-66357500D01*
X142564485Y-66357500D01*
X142270370Y-66062871D01*
X141757100Y-65849743D01*
X141201339Y-65849258D01*
X140687697Y-66061490D01*
X140294371Y-66454130D01*
X140081243Y-66967400D01*
X140080758Y-67523161D01*
X140292990Y-68036803D01*
X140645072Y-68389500D01*
X140589690Y-68389500D01*
X140356301Y-68486173D01*
X140177673Y-68664802D01*
X140081000Y-68898191D01*
X140081000Y-69500750D01*
X140239750Y-69659500D01*
X141351000Y-69659500D01*
X141351000Y-69639500D01*
X141605000Y-69639500D01*
X141605000Y-69659500D01*
X142716250Y-69659500D01*
X142875000Y-69500750D01*
X142875000Y-68898191D01*
X142778327Y-68664802D01*
X142599699Y-68486173D01*
X142366310Y-68389500D01*
X142310386Y-68389500D01*
X142564830Y-68135500D01*
X143586322Y-68135500D01*
X143610343Y-68256265D01*
X143750691Y-68466309D01*
X143960735Y-68606657D01*
X144208500Y-68655940D01*
X145986500Y-68655940D01*
X146234265Y-68606657D01*
X146444309Y-68466309D01*
X146584657Y-68256265D01*
X146633940Y-68008500D01*
X146633940Y-66484500D01*
X146584657Y-66236735D01*
X146444309Y-66026691D01*
X146234265Y-65886343D01*
X146049041Y-65849500D01*
X146234265Y-65812657D01*
X146444309Y-65672309D01*
X146584657Y-65462265D01*
X146633940Y-65214500D01*
X146633940Y-63690500D01*
X146584657Y-63442735D01*
X146444309Y-63232691D01*
X146234265Y-63092343D01*
X145986500Y-63043060D01*
X144208500Y-63043060D01*
X143960735Y-63092343D01*
X143750691Y-63232691D01*
X143610343Y-63442735D01*
X143586322Y-63563500D01*
X137519938Y-63563500D01*
X141090618Y-59992820D01*
X141144406Y-59912320D01*
X141283329Y-59704408D01*
X141351000Y-59364202D01*
X141351000Y-48927685D01*
X141866329Y-48412356D01*
X143167202Y-48412356D01*
X143405284Y-48914538D01*
X143817420Y-49287384D01*
X144201195Y-49446349D01*
X144421564Y-49324218D01*
X144421564Y-48191987D01*
X144675564Y-48191987D01*
X144675564Y-49324218D01*
X144895933Y-49446349D01*
X145398115Y-49208267D01*
X145770961Y-48796131D01*
X145929926Y-48412356D01*
X145807795Y-48191987D01*
X144675564Y-48191987D01*
X144421564Y-48191987D01*
X143289333Y-48191987D01*
X143167202Y-48412356D01*
X141866329Y-48412356D01*
X142612870Y-47665815D01*
X143029174Y-47666178D01*
X143221410Y-47586748D01*
X143167202Y-47717618D01*
X143289333Y-47937987D01*
X144241956Y-47937987D01*
X144354815Y-48050846D01*
X144534423Y-47871238D01*
X144421564Y-47758379D01*
X144421564Y-46805756D01*
X144675564Y-46805756D01*
X144675564Y-47937987D01*
X145807795Y-47937987D01*
X145929926Y-47717618D01*
X145691844Y-47215436D01*
X145279708Y-46842590D01*
X144895933Y-46683625D01*
X144675564Y-46805756D01*
X144421564Y-46805756D01*
X144201195Y-46683625D01*
X144066441Y-46747511D01*
X144149270Y-46548036D01*
X144149755Y-45992275D01*
X143937523Y-45478633D01*
X143544883Y-45085307D01*
X143031613Y-44872179D01*
X142475852Y-44871694D01*
X141962210Y-45083926D01*
X141568884Y-45476566D01*
X141355756Y-45989836D01*
X141355390Y-46408823D01*
X139833382Y-47930831D01*
X139640671Y-48219243D01*
X139573000Y-48559449D01*
X139573000Y-58995966D01*
X135711940Y-62857026D01*
X135711940Y-62420500D01*
X135662657Y-62172735D01*
X135522309Y-61962691D01*
X135312265Y-61822343D01*
X135064500Y-61773060D01*
X133604000Y-61773060D01*
X133604000Y-50110500D01*
X133536329Y-49770294D01*
X133343618Y-49481882D01*
X130858118Y-46996382D01*
X130746359Y-46921707D01*
X130569706Y-46803671D01*
X130366607Y-46763272D01*
X130319657Y-46527235D01*
X130179309Y-46317191D01*
X129969265Y-46176843D01*
X129721500Y-46127560D01*
X128721500Y-46127560D01*
X128473735Y-46176843D01*
X128263691Y-46317191D01*
X128123343Y-46527235D01*
X128074060Y-46775000D01*
X128074060Y-48475000D01*
X128123343Y-48722765D01*
X128263691Y-48932809D01*
X128473735Y-49073157D01*
X128721500Y-49122440D01*
X129721500Y-49122440D01*
X129969265Y-49073157D01*
X130179309Y-48932809D01*
X130219670Y-48872406D01*
X131826000Y-50478736D01*
X131826000Y-62307048D01*
X131680180Y-62658223D01*
X131679821Y-63069971D01*
X131837058Y-63450515D01*
X132076625Y-63690500D01*
X129476500Y-63690500D01*
X129176087Y-63750255D01*
X130003438Y-62924347D01*
X130634280Y-61405111D01*
X130635716Y-59760106D01*
X130007526Y-58239771D01*
X128845347Y-57075562D01*
X127326111Y-56444720D01*
X125681106Y-56443284D01*
X124160771Y-57071474D01*
X122996562Y-58233653D01*
X122365720Y-59752889D01*
X122364284Y-61397894D01*
X122992474Y-62918229D01*
X123716980Y-63644001D01*
X122294747Y-63644001D01*
X122209277Y-63627000D01*
X115556452Y-63627000D01*
X115205277Y-63481180D01*
X114793529Y-63480821D01*
X114439748Y-63627000D01*
X108318178Y-63627000D01*
X108294157Y-63506235D01*
X108153809Y-63296191D01*
X107943765Y-63155843D01*
X107696000Y-63106560D01*
X105918000Y-63106560D01*
X105670235Y-63155843D01*
X105460191Y-63296191D01*
X105319843Y-63506235D01*
X105270560Y-63754000D01*
X105270560Y-65278000D01*
X105319843Y-65525765D01*
X105460191Y-65735809D01*
X105670235Y-65876157D01*
X105855459Y-65913000D01*
X105670235Y-65949843D01*
X105460191Y-66090191D01*
X105319843Y-66300235D01*
X105270560Y-66548000D01*
X105270560Y-68072000D01*
X105319843Y-68319765D01*
X105460191Y-68529809D01*
X105670235Y-68670157D01*
X105918000Y-68719440D01*
X107696000Y-68719440D01*
X107943765Y-68670157D01*
X108153809Y-68529809D01*
X108294157Y-68319765D01*
X108318178Y-68199000D01*
X109403515Y-68199000D01*
X109657072Y-68453000D01*
X109601690Y-68453000D01*
X109368301Y-68549673D01*
X109189673Y-68728302D01*
X109093000Y-68961691D01*
X109093000Y-69564250D01*
X109251750Y-69723000D01*
X110363000Y-69723000D01*
X110363000Y-69703000D01*
X110617000Y-69703000D01*
X110617000Y-69723000D01*
X111728250Y-69723000D01*
X111887000Y-69564250D01*
X111887000Y-68961691D01*
X111790327Y-68728302D01*
X111611699Y-68549673D01*
X111378310Y-68453000D01*
X111322386Y-68453000D01*
X111673629Y-68102370D01*
X111886757Y-67589100D01*
X111887242Y-67033339D01*
X111675010Y-66519697D01*
X111282370Y-66126371D01*
X110769100Y-65913243D01*
X110213339Y-65912758D01*
X109699697Y-66124990D01*
X109403170Y-66421000D01*
X108318178Y-66421000D01*
X108294157Y-66300235D01*
X108153809Y-66090191D01*
X107943765Y-65949843D01*
X107758541Y-65913000D01*
X107943765Y-65876157D01*
X108153809Y-65735809D01*
X108294157Y-65525765D01*
X108318178Y-65405000D01*
X114178626Y-65405000D01*
X114027180Y-65769723D01*
X114026821Y-66181471D01*
X114173000Y-66535252D01*
X114173000Y-72570612D01*
X114037000Y-72543560D01*
X113037000Y-72543560D01*
X112789235Y-72592843D01*
X112579191Y-72733191D01*
X112438843Y-72943235D01*
X112389560Y-73191000D01*
X112389560Y-74891000D01*
X112438843Y-75138765D01*
X112579191Y-75348809D01*
X112789235Y-75489157D01*
X113037000Y-75538440D01*
X114037000Y-75538440D01*
X114284765Y-75489157D01*
X114494809Y-75348809D01*
X114635157Y-75138765D01*
X114676682Y-74930000D01*
X115570191Y-74930000D01*
X115606843Y-75114265D01*
X115747191Y-75324309D01*
X115957235Y-75464657D01*
X116142459Y-75501500D01*
X116078690Y-75501500D01*
X115845301Y-75598173D01*
X115666673Y-75776802D01*
X115570000Y-76010191D01*
X115570000Y-76612750D01*
X115728750Y-76771500D01*
X116967000Y-76771500D01*
X116967000Y-76751500D01*
X117221000Y-76751500D01*
X117221000Y-76771500D01*
X119634000Y-76771500D01*
X119634000Y-76751500D01*
X119888000Y-76751500D01*
X119888000Y-76771500D01*
X119908000Y-76771500D01*
X119908000Y-77025500D01*
X119888000Y-77025500D01*
X119888000Y-78136750D01*
X120046750Y-78295500D01*
X120776310Y-78295500D01*
X121009699Y-78198827D01*
X121188327Y-78020198D01*
X121242137Y-77890290D01*
X121258343Y-77971765D01*
X121398691Y-78181809D01*
X121608735Y-78322157D01*
X121856500Y-78371440D01*
X121856500Y-78646216D01*
X121776309Y-78613000D01*
X120435750Y-78613000D01*
X120277000Y-78771750D01*
X120277000Y-81661000D01*
X120297000Y-81661000D01*
X120297000Y-81915000D01*
X120277000Y-81915000D01*
X120277000Y-81935000D01*
X120023000Y-81935000D01*
X120023000Y-81915000D01*
X118173750Y-81915000D01*
X118015000Y-82073750D01*
X118015000Y-83723701D01*
X117385451Y-83573808D01*
X117368027Y-83573156D01*
X117351845Y-83566661D01*
X116344850Y-83377849D01*
X115470221Y-83190429D01*
X114663785Y-83004328D01*
X113987474Y-82819880D01*
X113361017Y-82631943D01*
X113356282Y-82631491D01*
X113352052Y-82629318D01*
X112482978Y-82381011D01*
X111232549Y-81943361D01*
X109994651Y-81510097D01*
X108399715Y-80773972D01*
X106860433Y-79911975D01*
X105187113Y-78796428D01*
X103617109Y-77603225D01*
X103597769Y-77593798D01*
X103582572Y-77578570D01*
X103473881Y-77533415D01*
X103368086Y-77481850D01*
X103346613Y-77480542D01*
X103326742Y-77472287D01*
X103209044Y-77472164D01*
X103091570Y-77465010D01*
X103071228Y-77472020D01*
X103049714Y-77471998D01*
X102940928Y-77516925D01*
X102829658Y-77555272D01*
X102813550Y-77569531D01*
X102793663Y-77577744D01*
X102412663Y-77831744D01*
X102406854Y-77837541D01*
X102399342Y-77840845D01*
X101835524Y-78235518D01*
X100280685Y-78833533D01*
X100024283Y-78919000D01*
X99799108Y-78919000D01*
X99635298Y-78837095D01*
X99579500Y-78792457D01*
X99579500Y-78653092D01*
X99769386Y-78463206D01*
X100874388Y-77707152D01*
X101902316Y-77223421D01*
X101929667Y-77203218D01*
X101961740Y-77191936D01*
X102040288Y-77121509D01*
X102125147Y-77058828D01*
X102142683Y-77029699D01*
X102168000Y-77007000D01*
X102213614Y-76911880D01*
X102268031Y-76821491D01*
X102273086Y-76787862D01*
X102287786Y-76757208D01*
X102293528Y-76651874D01*
X102309211Y-76547540D01*
X102301013Y-76514541D01*
X102302864Y-76480591D01*
X102267859Y-76381080D01*
X102242422Y-76278684D01*
X102222217Y-76251330D01*
X102210936Y-76219260D01*
X102140515Y-76140719D01*
X102077829Y-76055853D01*
X102048699Y-76038316D01*
X102026000Y-76013000D01*
X101825973Y-75862980D01*
X101255981Y-75235988D01*
X100653420Y-74452660D01*
X100199761Y-73772171D01*
X99967293Y-73191000D01*
X109089560Y-73191000D01*
X109089560Y-74891000D01*
X109138843Y-75138765D01*
X109279191Y-75348809D01*
X109348000Y-75394786D01*
X109348000Y-76878214D01*
X109279191Y-76924191D01*
X109138843Y-77134235D01*
X109089560Y-77382000D01*
X109089560Y-79082000D01*
X109138843Y-79329765D01*
X109279191Y-79539809D01*
X109489235Y-79680157D01*
X109737000Y-79729440D01*
X110737000Y-79729440D01*
X110984765Y-79680157D01*
X111194809Y-79539809D01*
X111335157Y-79329765D01*
X111384440Y-79082000D01*
X111384440Y-77382000D01*
X112389560Y-77382000D01*
X112389560Y-79082000D01*
X112438843Y-79329765D01*
X112579191Y-79539809D01*
X112789235Y-79680157D01*
X113037000Y-79729440D01*
X114037000Y-79729440D01*
X114284765Y-79680157D01*
X114494809Y-79539809D01*
X114635157Y-79329765D01*
X114676682Y-79121000D01*
X116543839Y-79121000D01*
X116682058Y-79455517D01*
X116972954Y-79746921D01*
X117353223Y-79904822D01*
X117764971Y-79905181D01*
X118015000Y-79801872D01*
X118015000Y-81502250D01*
X118173750Y-81661000D01*
X120023000Y-81661000D01*
X120023000Y-78771750D01*
X119864250Y-78613000D01*
X118573680Y-78613000D01*
X118437942Y-78284487D01*
X118347569Y-78193957D01*
X118427500Y-78114026D01*
X118512301Y-78198827D01*
X118745690Y-78295500D01*
X119475250Y-78295500D01*
X119634000Y-78136750D01*
X119634000Y-77025500D01*
X117221000Y-77025500D01*
X117221000Y-77045500D01*
X116967000Y-77045500D01*
X116967000Y-77025500D01*
X115728750Y-77025500D01*
X115570000Y-77184250D01*
X115570000Y-77343000D01*
X114676682Y-77343000D01*
X114635157Y-77134235D01*
X114494809Y-76924191D01*
X114284765Y-76783843D01*
X114037000Y-76734560D01*
X113037000Y-76734560D01*
X112789235Y-76783843D01*
X112579191Y-76924191D01*
X112438843Y-77134235D01*
X112389560Y-77382000D01*
X111384440Y-77382000D01*
X111335157Y-77134235D01*
X111194809Y-76924191D01*
X111126000Y-76878214D01*
X111126000Y-75394786D01*
X111194809Y-75348809D01*
X111335157Y-75138765D01*
X111384440Y-74891000D01*
X111384440Y-73191000D01*
X111335157Y-72943235D01*
X111194809Y-72733191D01*
X110984765Y-72592843D01*
X110737000Y-72543560D01*
X109737000Y-72543560D01*
X109489235Y-72592843D01*
X109279191Y-72733191D01*
X109138843Y-72943235D01*
X109089560Y-73191000D01*
X99967293Y-73191000D01*
X99846218Y-72888313D01*
X99825270Y-72856120D01*
X99814239Y-72819328D01*
X99750305Y-72740910D01*
X99695129Y-72656113D01*
X99663458Y-72634388D01*
X99639186Y-72604617D01*
X99550113Y-72556637D01*
X99466683Y-72499407D01*
X99429104Y-72491455D01*
X99395291Y-72473241D01*
X99294641Y-72463000D01*
X99195657Y-72442053D01*
X99157899Y-72449086D01*
X99119686Y-72445198D01*
X97819765Y-72569000D01*
X96306707Y-72569000D01*
X95873096Y-72438917D01*
X95770837Y-72370744D01*
X95770836Y-72370743D01*
X95737220Y-72348333D01*
X95729398Y-72332689D01*
X95716752Y-72282104D01*
X95724634Y-72266339D01*
X95786445Y-72241615D01*
X96225253Y-72131913D01*
X96867213Y-72015193D01*
X98356963Y-71891047D01*
X98461560Y-71861027D01*
X98568332Y-71840021D01*
X98593819Y-71823068D01*
X98623241Y-71814624D01*
X98708395Y-71746857D01*
X98798994Y-71686594D01*
X98816051Y-71661182D01*
X98840005Y-71642119D01*
X98892742Y-71546925D01*
X98953385Y-71456577D01*
X98959419Y-71426568D01*
X98974253Y-71399792D01*
X98986547Y-71291663D01*
X99007998Y-71184985D01*
X99002090Y-71154954D01*
X99005548Y-71124538D01*
X98975526Y-71019933D01*
X98954521Y-70913167D01*
X98634409Y-70135750D01*
X109093000Y-70135750D01*
X109093000Y-70738309D01*
X109189673Y-70971698D01*
X109368301Y-71150327D01*
X109601690Y-71247000D01*
X110204250Y-71247000D01*
X110363000Y-71088250D01*
X110363000Y-69977000D01*
X110617000Y-69977000D01*
X110617000Y-71088250D01*
X110775750Y-71247000D01*
X111378310Y-71247000D01*
X111611699Y-71150327D01*
X111790327Y-70971698D01*
X111887000Y-70738309D01*
X111887000Y-70135750D01*
X111728250Y-69977000D01*
X110617000Y-69977000D01*
X110363000Y-69977000D01*
X109251750Y-69977000D01*
X109093000Y-70135750D01*
X98634409Y-70135750D01*
X98521889Y-69862489D01*
X98226140Y-68916094D01*
X98049796Y-67975594D01*
X97925831Y-66549993D01*
X97919700Y-66528918D01*
X97920767Y-66507000D01*
X97881208Y-66396599D01*
X97848450Y-66283991D01*
X97834723Y-66266869D01*
X97827320Y-66246208D01*
X97748530Y-66159357D01*
X97675167Y-66067849D01*
X97655927Y-66057281D01*
X97641184Y-66041029D01*
X97535158Y-65990942D01*
X97432359Y-65934474D01*
X97410543Y-65932073D01*
X97390700Y-65922699D01*
X96882700Y-65795699D01*
X96865575Y-65794866D01*
X96849742Y-65788288D01*
X95584562Y-65535252D01*
X94728176Y-65351741D01*
X94525366Y-65290898D01*
X94871486Y-65226000D01*
X96774000Y-65226000D01*
X96823755Y-65216103D01*
X96874409Y-65218864D01*
X96958390Y-65189322D01*
X97045705Y-65171954D01*
X97087887Y-65143769D01*
X97135740Y-65126936D01*
X97202020Y-65067508D01*
X97276046Y-65018046D01*
X97304230Y-64975865D01*
X97342000Y-64942000D01*
X97532500Y-64688000D01*
X97570994Y-64607727D01*
X97620454Y-64533705D01*
X97630351Y-64483949D01*
X97652286Y-64438208D01*
X97657131Y-64349318D01*
X97674500Y-64262000D01*
X97674500Y-63918267D01*
X97797599Y-62748826D01*
X97796672Y-62738724D01*
X97799409Y-62728955D01*
X97860501Y-61934756D01*
X98105336Y-60465745D01*
X98402751Y-59216606D01*
X103486092Y-59216606D01*
X103576675Y-59672000D01*
X103834635Y-60058063D01*
X105994437Y-62217865D01*
X106380500Y-62475824D01*
X106835894Y-62566408D01*
X107291288Y-62475824D01*
X107677351Y-62217865D01*
X107935310Y-61831802D01*
X108025894Y-61376408D01*
X107935310Y-60921014D01*
X107677351Y-60534951D01*
X105517549Y-58375149D01*
X105131486Y-58117189D01*
X104676092Y-58026606D01*
X104220698Y-58117189D01*
X103834635Y-58375149D01*
X103576675Y-58761212D01*
X103486092Y-59216606D01*
X98402751Y-59216606D01*
X98415258Y-59164077D01*
X98726040Y-57983106D01*
X99157277Y-56627790D01*
X99528718Y-55699187D01*
X99530155Y-55691472D01*
X99534294Y-55684798D01*
X99902211Y-54703686D01*
X99971580Y-54564947D01*
X104103211Y-54564947D01*
X105372991Y-57863669D01*
X107808481Y-60425367D01*
X111038900Y-61860046D01*
X111487553Y-61949289D01*
X112903000Y-61921911D01*
X112903000Y-53149500D01*
X113157000Y-53149500D01*
X113157000Y-61921911D01*
X114572447Y-61949289D01*
X117871169Y-60679509D01*
X120432867Y-58244019D01*
X121867546Y-55013600D01*
X121956789Y-54564947D01*
X121929411Y-53149500D01*
X113157000Y-53149500D01*
X112903000Y-53149500D01*
X104130589Y-53149500D01*
X104103211Y-54564947D01*
X99971580Y-54564947D01*
X100507055Y-53493999D01*
X101182519Y-52388693D01*
X101682756Y-51638337D01*
X101690990Y-51618400D01*
X101705283Y-51602248D01*
X101776563Y-51480053D01*
X104103211Y-51480053D01*
X104130589Y-52895500D01*
X112903000Y-52895500D01*
X112903000Y-44123089D01*
X113157000Y-44123089D01*
X113157000Y-52895500D01*
X121929411Y-52895500D01*
X121956789Y-51480053D01*
X120687009Y-48181331D01*
X118251519Y-45619633D01*
X116110092Y-44668592D01*
X118034106Y-44668592D01*
X118124689Y-45123986D01*
X118382649Y-45510049D01*
X120542451Y-47669851D01*
X120928514Y-47927810D01*
X121299977Y-48001699D01*
X121551896Y-48253618D01*
X121840309Y-48446330D01*
X122180514Y-48514000D01*
X124781818Y-48514000D01*
X124823343Y-48722765D01*
X124963691Y-48932809D01*
X125173735Y-49073157D01*
X125421500Y-49122440D01*
X126421500Y-49122440D01*
X126669265Y-49073157D01*
X126879309Y-48932809D01*
X127019657Y-48722765D01*
X127068940Y-48475000D01*
X127068940Y-46775000D01*
X127019657Y-46527235D01*
X126879309Y-46317191D01*
X126669265Y-46176843D01*
X126421500Y-46127560D01*
X125421500Y-46127560D01*
X125173735Y-46176843D01*
X124963691Y-46317191D01*
X124823343Y-46527235D01*
X124781818Y-46736000D01*
X122555530Y-46736000D01*
X122483324Y-46373000D01*
X122225365Y-45986937D01*
X120065563Y-43827135D01*
X119679500Y-43569175D01*
X119224106Y-43478592D01*
X118768712Y-43569175D01*
X118382649Y-43827135D01*
X118124689Y-44213198D01*
X118034106Y-44668592D01*
X116110092Y-44668592D01*
X115021100Y-44184954D01*
X114572447Y-44095711D01*
X113157000Y-44123089D01*
X112903000Y-44123089D01*
X111487553Y-44095711D01*
X108188831Y-45365491D01*
X105627133Y-47800981D01*
X104192454Y-51031400D01*
X104103211Y-51480053D01*
X101776563Y-51480053D01*
X102149783Y-50840249D01*
X102165553Y-50794465D01*
X102192454Y-50754205D01*
X102210268Y-50664650D01*
X102240003Y-50578323D01*
X102237053Y-50529994D01*
X102246500Y-50482500D01*
X102228687Y-50392946D01*
X102223123Y-50301810D01*
X102201900Y-50258285D01*
X102192454Y-50210795D01*
X102141726Y-50134874D01*
X102101709Y-50052805D01*
X102065449Y-50020718D01*
X102038546Y-49980454D01*
X100863301Y-48805209D01*
X100520606Y-48364601D01*
X100316648Y-47752728D01*
X100083616Y-46704082D01*
X100025364Y-45539042D01*
X100145950Y-43971418D01*
X100324413Y-43019619D01*
X100568063Y-42105931D01*
X100804102Y-41338803D01*
X101154032Y-40580621D01*
X101447571Y-40052252D01*
X101965486Y-39246606D01*
X102147576Y-39064516D01*
X102482810Y-38896898D01*
X102861947Y-38802114D01*
X103473704Y-38746500D01*
X103942698Y-38746500D01*
X104826257Y-38923212D01*
X104826258Y-38923212D01*
X105754782Y-39108917D01*
X106417132Y-39289558D01*
X107398942Y-39596374D01*
X109016113Y-40218363D01*
X110318138Y-40776373D01*
X112585478Y-41910043D01*
X113220479Y-42227543D01*
X113311553Y-42252484D01*
X113398758Y-42288712D01*
X114033757Y-42415712D01*
X114127385Y-42415810D01*
X114220228Y-42427927D01*
X115172728Y-42364427D01*
X115210146Y-42354356D01*
X115248888Y-42355196D01*
X116328388Y-42164696D01*
X116336036Y-42161721D01*
X116344242Y-42161712D01*
X117261045Y-41978351D01*
X118549953Y-41855598D01*
X120313996Y-41729595D01*
X121444355Y-41666798D01*
X123215341Y-41603548D01*
X123215342Y-41603548D01*
X125031902Y-41540908D01*
X126912846Y-41603606D01*
X127006300Y-41588234D01*
X127100951Y-41584693D01*
X127141829Y-41565941D01*
X127186201Y-41558642D01*
X127266660Y-41508676D01*
X127352749Y-41469184D01*
X127383336Y-41436219D01*
X127421542Y-41412493D01*
X127476758Y-41335536D01*
X127541177Y-41266109D01*
X128036410Y-40461357D01*
X128650523Y-39601599D01*
X129467239Y-38533585D01*
X130351465Y-37396723D01*
X131085853Y-36478739D01*
X131639106Y-35925486D01*
X132373555Y-35453340D01*
X133372517Y-35175851D01*
X134121319Y-35060650D01*
X135250034Y-35001244D01*
X136076171Y-35056320D01*
X136076171Y-35056320D01*
G37*
X136076171Y-35056320D02*
X136957136Y-35331622D01*
X138095505Y-35900806D01*
X139416146Y-37049190D01*
X140364751Y-38472098D01*
X141177400Y-39909860D01*
X141263121Y-40009429D01*
X141346767Y-40110716D01*
X141353311Y-40114188D01*
X141358145Y-40119803D01*
X141475431Y-40178982D01*
X141591483Y-40240557D01*
X141598859Y-40241261D01*
X141605473Y-40244598D01*
X141736462Y-40254387D01*
X141867259Y-40266864D01*
X141874344Y-40264691D01*
X141881731Y-40265243D01*
X142006498Y-40224159D01*
X142132111Y-40185634D01*
X142940709Y-39750236D01*
X143991579Y-39255709D01*
X144861252Y-38882992D01*
X145792093Y-38510656D01*
X146857803Y-38134523D01*
X146860751Y-38132773D01*
X146864138Y-38132253D01*
X147553606Y-37881537D01*
X148094316Y-37701300D01*
X149258116Y-37395037D01*
X149535418Y-37339577D01*
X149910457Y-37286000D01*
X150217096Y-37286000D01*
X150359845Y-37321687D01*
X150415173Y-37340130D01*
X150504891Y-37407419D01*
X150683333Y-37630471D01*
X150895726Y-37949060D01*
X151488391Y-39134390D01*
X151719568Y-39827920D01*
X151961351Y-40734607D01*
X152207462Y-42026689D01*
X152459136Y-43788409D01*
X152488678Y-43872390D01*
X152506046Y-43959705D01*
X152534231Y-44001887D01*
X152551064Y-44049740D01*
X152610492Y-44116020D01*
X152659954Y-44190046D01*
X152702135Y-44218230D01*
X152736000Y-44256000D01*
X152816273Y-44294494D01*
X152890295Y-44343954D01*
X152940051Y-44353851D01*
X152985792Y-44375786D01*
X153074682Y-44380631D01*
X153162000Y-44398000D01*
X154483781Y-44398000D01*
X155211100Y-44553854D01*
X156229386Y-45062997D01*
X157108842Y-45667623D01*
X157531836Y-46231614D01*
X157861064Y-47383911D01*
X157976500Y-48365122D01*
X157976500Y-49551879D01*
X157859674Y-50544900D01*
X157623312Y-51490348D01*
X157205052Y-52745128D01*
X156357167Y-54380334D01*
X155155291Y-56243242D01*
X153762769Y-57514675D01*
X153692189Y-57610573D01*
X153616365Y-57702389D01*
X153610471Y-57721606D01*
X153598560Y-57737790D01*
X153570051Y-57853398D01*
X153535136Y-57967241D01*
X153537044Y-57987246D01*
X153532232Y-58006761D01*
X153550136Y-58124481D01*
X153561443Y-58243017D01*
X153743741Y-58850676D01*
X153928260Y-59711766D01*
X153933105Y-59722991D01*
X153933699Y-59735200D01*
X154121278Y-60485519D01*
X154307565Y-61354854D01*
X154552628Y-62641438D01*
X154613091Y-63427455D01*
X154643241Y-63535086D01*
X154665046Y-63644705D01*
X154680375Y-63667646D01*
X154687817Y-63694214D01*
X154756857Y-63782111D01*
X154818954Y-63875046D01*
X154841894Y-63890374D01*
X154858938Y-63912073D01*
X154956366Y-63966861D01*
X155049295Y-64028954D01*
X155076355Y-64034337D01*
X155100405Y-64047861D01*
X155211379Y-64061195D01*
X155321000Y-64083000D01*
X156574113Y-64083000D01*
X157848987Y-64143708D01*
X158436805Y-64241678D01*
X158563758Y-64317850D01*
X158694150Y-64448242D01*
X158810412Y-64642012D01*
X158823393Y-64674463D01*
X158738887Y-64702632D01*
X157924500Y-64756924D01*
X157019228Y-64696573D01*
X156995486Y-64699672D01*
X156972000Y-64695000D01*
X155257500Y-64695000D01*
X154985795Y-64749046D01*
X154755454Y-64902954D01*
X154601546Y-65133295D01*
X154547500Y-65405000D01*
X154547500Y-66391462D01*
X154487264Y-67114302D01*
X154425381Y-67671252D01*
X154363256Y-68168251D01*
X154301806Y-68598401D01*
X154245565Y-68935850D01*
X154064518Y-69599687D01*
X154056444Y-69715000D01*
X154040806Y-69829528D01*
X154046822Y-69852422D01*
X154045169Y-69876038D01*
X154081838Y-69985664D01*
X154111217Y-70097458D01*
X154125537Y-70116307D01*
X154133047Y-70138759D01*
X154208880Y-70226010D01*
X154278803Y-70318048D01*
X154299247Y-70329983D01*
X154314776Y-70347850D01*
X154418214Y-70399434D01*
X154518047Y-70457715D01*
X156323344Y-71080231D01*
X157339825Y-71558576D01*
X157995407Y-71940999D01*
X157998166Y-71943758D01*
X158025383Y-72107063D01*
X158016602Y-72142188D01*
X158000913Y-72173565D01*
X157770787Y-72140690D01*
X156884029Y-71845104D01*
X155619049Y-71402361D01*
X155595638Y-71399054D01*
X155574527Y-71388402D01*
X154431527Y-71070902D01*
X154405162Y-71068932D01*
X154380743Y-71058787D01*
X154267844Y-71058669D01*
X154155269Y-71050256D01*
X154130155Y-71058526D01*
X154103715Y-71058498D01*
X153999374Y-71101590D01*
X153892139Y-71136900D01*
X153872101Y-71154152D01*
X153847663Y-71164244D01*
X153767752Y-71243988D01*
X153682197Y-71317645D01*
X153670286Y-71341251D01*
X153651570Y-71359928D01*
X153608259Y-71464180D01*
X153557402Y-71564973D01*
X153555431Y-71591341D01*
X153545288Y-71615757D01*
X153493048Y-71876957D01*
X153141914Y-72813313D01*
X152717121Y-73723584D01*
X152239825Y-74618515D01*
X151949249Y-75025321D01*
X151926246Y-75076298D01*
X151891957Y-75120478D01*
X151701457Y-75501478D01*
X151679652Y-75581101D01*
X151645412Y-75656221D01*
X151643410Y-75713446D01*
X151628287Y-75768669D01*
X151638612Y-75850573D01*
X151635725Y-75933080D01*
X151655774Y-75986714D01*
X151662935Y-76043522D01*
X151703819Y-76115243D01*
X151732725Y-76192571D01*
X151771772Y-76234449D01*
X151800128Y-76284193D01*
X151865347Y-76334809D01*
X151921644Y-76395189D01*
X153488757Y-77523511D01*
X153786759Y-77771845D01*
X153889088Y-77908284D01*
X153952602Y-78035312D01*
X153976000Y-78128904D01*
X153976000Y-78208096D01*
X153960229Y-78271179D01*
X153916166Y-78315242D01*
X153886489Y-78335027D01*
X153836596Y-78347500D01*
X153740303Y-78347500D01*
X153584977Y-78316435D01*
X153192195Y-78120044D01*
X152712799Y-77820421D01*
X152706657Y-77818093D01*
X152701792Y-77813680D01*
X152074790Y-77437479D01*
X151384182Y-76998000D01*
X151275203Y-76955684D01*
X151169076Y-76906697D01*
X151146759Y-76905809D01*
X151125939Y-76897725D01*
X151009073Y-76900334D01*
X150892266Y-76895688D01*
X150871308Y-76903409D01*
X150848979Y-76903907D01*
X150742004Y-76951042D01*
X150632315Y-76991449D01*
X150615907Y-77006602D01*
X150595469Y-77015607D01*
X150514677Y-77100088D01*
X150428797Y-77179398D01*
X149953562Y-77832846D01*
X149377232Y-78409176D01*
X148526499Y-79138376D01*
X147809984Y-79675762D01*
X146701977Y-80352877D01*
X145966016Y-80782188D01*
X144862144Y-81334124D01*
X144003402Y-81702156D01*
X142896645Y-82132562D01*
X141465047Y-82568266D01*
X140408843Y-82878914D01*
X139603850Y-83064682D01*
X139597860Y-83067380D01*
X139591300Y-83067699D01*
X138591688Y-83317602D01*
X137353848Y-83565170D01*
X136547783Y-83689180D01*
X135692976Y-83811295D01*
X134985000Y-83850627D01*
X134985000Y-82073750D01*
X134826250Y-81915000D01*
X132977000Y-81915000D01*
X132977000Y-81935000D01*
X132723000Y-81935000D01*
X132723000Y-81915000D01*
X130873750Y-81915000D01*
X130715000Y-82073750D01*
X130715000Y-83872000D01*
X129167000Y-83872000D01*
X129167000Y-82708750D01*
X129008250Y-82550000D01*
X127897000Y-82550000D01*
X127897000Y-82570000D01*
X127643000Y-82570000D01*
X127643000Y-82550000D01*
X127623000Y-82550000D01*
X127623000Y-82296000D01*
X127643000Y-82296000D01*
X127643000Y-80041750D01*
X127897000Y-80041750D01*
X127897000Y-82296000D01*
X129008250Y-82296000D01*
X129167000Y-82137250D01*
X129167000Y-80391690D01*
X129070327Y-80158301D01*
X128891698Y-79979673D01*
X128658309Y-79883000D01*
X128055750Y-79883000D01*
X127897000Y-80041750D01*
X127643000Y-80041750D01*
X127484250Y-79883000D01*
X126881691Y-79883000D01*
X126648302Y-79979673D01*
X126497063Y-80130911D01*
X126449809Y-80060191D01*
X126239765Y-79919843D01*
X126111000Y-79894230D01*
X126111000Y-79121690D01*
X130715000Y-79121690D01*
X130715000Y-81502250D01*
X130873750Y-81661000D01*
X132723000Y-81661000D01*
X132723000Y-78771750D01*
X132977000Y-78771750D01*
X132977000Y-81661000D01*
X134826250Y-81661000D01*
X134985000Y-81502250D01*
X134985000Y-79121690D01*
X134888327Y-78888301D01*
X134709698Y-78709673D01*
X134476309Y-78613000D01*
X133135750Y-78613000D01*
X132977000Y-78771750D01*
X132723000Y-78771750D01*
X132564250Y-78613000D01*
X131223691Y-78613000D01*
X130990302Y-78709673D01*
X130811673Y-78888301D01*
X130715000Y-79121690D01*
X126111000Y-79121690D01*
X126111000Y-78371440D01*
X126358765Y-78322157D01*
X126568809Y-78181809D01*
X126709157Y-77971765D01*
X126758440Y-77724000D01*
X126758440Y-76200000D01*
X126709157Y-75952235D01*
X126568809Y-75742191D01*
X126358765Y-75601843D01*
X126173541Y-75565000D01*
X126358765Y-75528157D01*
X126568809Y-75387809D01*
X126709157Y-75177765D01*
X126758440Y-74930000D01*
X126758440Y-73406000D01*
X126709157Y-73158235D01*
X126568809Y-72948191D01*
X126358765Y-72807843D01*
X126111000Y-72758560D01*
X125984000Y-72758560D01*
X125984000Y-72451630D01*
X128363380Y-70072250D01*
X129011500Y-70072250D01*
X129011500Y-70212809D01*
X129108173Y-70446198D01*
X129286801Y-70624827D01*
X129520190Y-70721500D01*
X130460750Y-70721500D01*
X130619500Y-70562750D01*
X130619500Y-69913500D01*
X130873500Y-69913500D01*
X130873500Y-70562750D01*
X131032250Y-70721500D01*
X131972810Y-70721500D01*
X132206199Y-70624827D01*
X132384827Y-70446198D01*
X132481500Y-70212809D01*
X132481500Y-70072250D01*
X140081000Y-70072250D01*
X140081000Y-70674809D01*
X140177673Y-70908198D01*
X140356301Y-71086827D01*
X140589690Y-71183500D01*
X141192250Y-71183500D01*
X141351000Y-71024750D01*
X141351000Y-69913500D01*
X141605000Y-69913500D01*
X141605000Y-71024750D01*
X141763750Y-71183500D01*
X142366310Y-71183500D01*
X142599699Y-71086827D01*
X142778327Y-70908198D01*
X142875000Y-70674809D01*
X142875000Y-70072250D01*
X142716250Y-69913500D01*
X141605000Y-69913500D01*
X141351000Y-69913500D01*
X140239750Y-69913500D01*
X140081000Y-70072250D01*
X132481500Y-70072250D01*
X132322750Y-69913500D01*
X130873500Y-69913500D01*
X130619500Y-69913500D01*
X129170250Y-69913500D01*
X129011500Y-70072250D01*
X128363380Y-70072250D01*
X129011500Y-69424130D01*
X129011500Y-69500750D01*
X129170250Y-69659500D01*
X130619500Y-69659500D01*
X130619500Y-69639500D01*
X130873500Y-69639500D01*
X130873500Y-69659500D01*
X132322750Y-69659500D01*
X132481500Y-69500750D01*
X132481500Y-69360191D01*
X132391732Y-69143472D01*
X132444657Y-69064265D01*
X132493940Y-68816500D01*
X132493940Y-68216500D01*
X132444657Y-67968735D01*
X132386368Y-67881500D01*
X132444657Y-67794265D01*
X132493940Y-67546500D01*
X132493940Y-66946500D01*
X132477828Y-66865500D01*
X132664322Y-66865500D01*
X132688343Y-66986265D01*
X132828691Y-67196309D01*
X133038735Y-67336657D01*
X133286500Y-67385940D01*
X135064500Y-67385940D01*
X135312265Y-67336657D01*
X135522309Y-67196309D01*
X135662657Y-66986265D01*
X135711940Y-66738500D01*
X135711940Y-65317285D01*
X135875320Y-65208118D01*
X136203897Y-64879541D01*
X136322058Y-65165515D01*
X136612954Y-65456919D01*
X136993223Y-65614820D01*
X137404971Y-65615179D01*
X137785515Y-65457942D01*
X137902160Y-65341500D01*
X143586322Y-65341500D01*
X143610343Y-65462265D01*
X143750691Y-65672309D01*
X143960735Y-65812657D01*
X144145959Y-65849500D01*
X143960735Y-65886343D01*
X143750691Y-66026691D01*
X143610343Y-66236735D01*
X143586322Y-66357500D01*
X142564485Y-66357500D01*
X142270370Y-66062871D01*
X141757100Y-65849743D01*
X141201339Y-65849258D01*
X140687697Y-66061490D01*
X140294371Y-66454130D01*
X140081243Y-66967400D01*
X140080758Y-67523161D01*
X140292990Y-68036803D01*
X140645072Y-68389500D01*
X140589690Y-68389500D01*
X140356301Y-68486173D01*
X140177673Y-68664802D01*
X140081000Y-68898191D01*
X140081000Y-69500750D01*
X140239750Y-69659500D01*
X141351000Y-69659500D01*
X141351000Y-69639500D01*
X141605000Y-69639500D01*
X141605000Y-69659500D01*
X142716250Y-69659500D01*
X142875000Y-69500750D01*
X142875000Y-68898191D01*
X142778327Y-68664802D01*
X142599699Y-68486173D01*
X142366310Y-68389500D01*
X142310386Y-68389500D01*
X142564830Y-68135500D01*
X143586322Y-68135500D01*
X143610343Y-68256265D01*
X143750691Y-68466309D01*
X143960735Y-68606657D01*
X144208500Y-68655940D01*
X145986500Y-68655940D01*
X146234265Y-68606657D01*
X146444309Y-68466309D01*
X146584657Y-68256265D01*
X146633940Y-68008500D01*
X146633940Y-66484500D01*
X146584657Y-66236735D01*
X146444309Y-66026691D01*
X146234265Y-65886343D01*
X146049041Y-65849500D01*
X146234265Y-65812657D01*
X146444309Y-65672309D01*
X146584657Y-65462265D01*
X146633940Y-65214500D01*
X146633940Y-63690500D01*
X146584657Y-63442735D01*
X146444309Y-63232691D01*
X146234265Y-63092343D01*
X145986500Y-63043060D01*
X144208500Y-63043060D01*
X143960735Y-63092343D01*
X143750691Y-63232691D01*
X143610343Y-63442735D01*
X143586322Y-63563500D01*
X137519938Y-63563500D01*
X141090618Y-59992820D01*
X141144406Y-59912320D01*
X141283329Y-59704408D01*
X141351000Y-59364202D01*
X141351000Y-48927685D01*
X141866329Y-48412356D01*
X143167202Y-48412356D01*
X143405284Y-48914538D01*
X143817420Y-49287384D01*
X144201195Y-49446349D01*
X144421564Y-49324218D01*
X144421564Y-48191987D01*
X144675564Y-48191987D01*
X144675564Y-49324218D01*
X144895933Y-49446349D01*
X145398115Y-49208267D01*
X145770961Y-48796131D01*
X145929926Y-48412356D01*
X145807795Y-48191987D01*
X144675564Y-48191987D01*
X144421564Y-48191987D01*
X143289333Y-48191987D01*
X143167202Y-48412356D01*
X141866329Y-48412356D01*
X142612870Y-47665815D01*
X143029174Y-47666178D01*
X143221410Y-47586748D01*
X143167202Y-47717618D01*
X143289333Y-47937987D01*
X144241956Y-47937987D01*
X144354815Y-48050846D01*
X144534423Y-47871238D01*
X144421564Y-47758379D01*
X144421564Y-46805756D01*
X144675564Y-46805756D01*
X144675564Y-47937987D01*
X145807795Y-47937987D01*
X145929926Y-47717618D01*
X145691844Y-47215436D01*
X145279708Y-46842590D01*
X144895933Y-46683625D01*
X144675564Y-46805756D01*
X144421564Y-46805756D01*
X144201195Y-46683625D01*
X144066441Y-46747511D01*
X144149270Y-46548036D01*
X144149755Y-45992275D01*
X143937523Y-45478633D01*
X143544883Y-45085307D01*
X143031613Y-44872179D01*
X142475852Y-44871694D01*
X141962210Y-45083926D01*
X141568884Y-45476566D01*
X141355756Y-45989836D01*
X141355390Y-46408823D01*
X139833382Y-47930831D01*
X139640671Y-48219243D01*
X139573000Y-48559449D01*
X139573000Y-58995966D01*
X135711940Y-62857026D01*
X135711940Y-62420500D01*
X135662657Y-62172735D01*
X135522309Y-61962691D01*
X135312265Y-61822343D01*
X135064500Y-61773060D01*
X133604000Y-61773060D01*
X133604000Y-50110500D01*
X133536329Y-49770294D01*
X133343618Y-49481882D01*
X130858118Y-46996382D01*
X130746359Y-46921707D01*
X130569706Y-46803671D01*
X130366607Y-46763272D01*
X130319657Y-46527235D01*
X130179309Y-46317191D01*
X129969265Y-46176843D01*
X129721500Y-46127560D01*
X128721500Y-46127560D01*
X128473735Y-46176843D01*
X128263691Y-46317191D01*
X128123343Y-46527235D01*
X128074060Y-46775000D01*
X128074060Y-48475000D01*
X128123343Y-48722765D01*
X128263691Y-48932809D01*
X128473735Y-49073157D01*
X128721500Y-49122440D01*
X129721500Y-49122440D01*
X129969265Y-49073157D01*
X130179309Y-48932809D01*
X130219670Y-48872406D01*
X131826000Y-50478736D01*
X131826000Y-62307048D01*
X131680180Y-62658223D01*
X131679821Y-63069971D01*
X131837058Y-63450515D01*
X132076625Y-63690500D01*
X129476500Y-63690500D01*
X129176087Y-63750255D01*
X130003438Y-62924347D01*
X130634280Y-61405111D01*
X130635716Y-59760106D01*
X130007526Y-58239771D01*
X128845347Y-57075562D01*
X127326111Y-56444720D01*
X125681106Y-56443284D01*
X124160771Y-57071474D01*
X122996562Y-58233653D01*
X122365720Y-59752889D01*
X122364284Y-61397894D01*
X122992474Y-62918229D01*
X123716980Y-63644001D01*
X122294747Y-63644001D01*
X122209277Y-63627000D01*
X115556452Y-63627000D01*
X115205277Y-63481180D01*
X114793529Y-63480821D01*
X114439748Y-63627000D01*
X108318178Y-63627000D01*
X108294157Y-63506235D01*
X108153809Y-63296191D01*
X107943765Y-63155843D01*
X107696000Y-63106560D01*
X105918000Y-63106560D01*
X105670235Y-63155843D01*
X105460191Y-63296191D01*
X105319843Y-63506235D01*
X105270560Y-63754000D01*
X105270560Y-65278000D01*
X105319843Y-65525765D01*
X105460191Y-65735809D01*
X105670235Y-65876157D01*
X105855459Y-65913000D01*
X105670235Y-65949843D01*
X105460191Y-66090191D01*
X105319843Y-66300235D01*
X105270560Y-66548000D01*
X105270560Y-68072000D01*
X105319843Y-68319765D01*
X105460191Y-68529809D01*
X105670235Y-68670157D01*
X105918000Y-68719440D01*
X107696000Y-68719440D01*
X107943765Y-68670157D01*
X108153809Y-68529809D01*
X108294157Y-68319765D01*
X108318178Y-68199000D01*
X109403515Y-68199000D01*
X109657072Y-68453000D01*
X109601690Y-68453000D01*
X109368301Y-68549673D01*
X109189673Y-68728302D01*
X109093000Y-68961691D01*
X109093000Y-69564250D01*
X109251750Y-69723000D01*
X110363000Y-69723000D01*
X110363000Y-69703000D01*
X110617000Y-69703000D01*
X110617000Y-69723000D01*
X111728250Y-69723000D01*
X111887000Y-69564250D01*
X111887000Y-68961691D01*
X111790327Y-68728302D01*
X111611699Y-68549673D01*
X111378310Y-68453000D01*
X111322386Y-68453000D01*
X111673629Y-68102370D01*
X111886757Y-67589100D01*
X111887242Y-67033339D01*
X111675010Y-66519697D01*
X111282370Y-66126371D01*
X110769100Y-65913243D01*
X110213339Y-65912758D01*
X109699697Y-66124990D01*
X109403170Y-66421000D01*
X108318178Y-66421000D01*
X108294157Y-66300235D01*
X108153809Y-66090191D01*
X107943765Y-65949843D01*
X107758541Y-65913000D01*
X107943765Y-65876157D01*
X108153809Y-65735809D01*
X108294157Y-65525765D01*
X108318178Y-65405000D01*
X114178626Y-65405000D01*
X114027180Y-65769723D01*
X114026821Y-66181471D01*
X114173000Y-66535252D01*
X114173000Y-72570612D01*
X114037000Y-72543560D01*
X113037000Y-72543560D01*
X112789235Y-72592843D01*
X112579191Y-72733191D01*
X112438843Y-72943235D01*
X112389560Y-73191000D01*
X112389560Y-74891000D01*
X112438843Y-75138765D01*
X112579191Y-75348809D01*
X112789235Y-75489157D01*
X113037000Y-75538440D01*
X114037000Y-75538440D01*
X114284765Y-75489157D01*
X114494809Y-75348809D01*
X114635157Y-75138765D01*
X114676682Y-74930000D01*
X115570191Y-74930000D01*
X115606843Y-75114265D01*
X115747191Y-75324309D01*
X115957235Y-75464657D01*
X116142459Y-75501500D01*
X116078690Y-75501500D01*
X115845301Y-75598173D01*
X115666673Y-75776802D01*
X115570000Y-76010191D01*
X115570000Y-76612750D01*
X115728750Y-76771500D01*
X116967000Y-76771500D01*
X116967000Y-76751500D01*
X117221000Y-76751500D01*
X117221000Y-76771500D01*
X119634000Y-76771500D01*
X119634000Y-76751500D01*
X119888000Y-76751500D01*
X119888000Y-76771500D01*
X119908000Y-76771500D01*
X119908000Y-77025500D01*
X119888000Y-77025500D01*
X119888000Y-78136750D01*
X120046750Y-78295500D01*
X120776310Y-78295500D01*
X121009699Y-78198827D01*
X121188327Y-78020198D01*
X121242137Y-77890290D01*
X121258343Y-77971765D01*
X121398691Y-78181809D01*
X121608735Y-78322157D01*
X121856500Y-78371440D01*
X121856500Y-78646216D01*
X121776309Y-78613000D01*
X120435750Y-78613000D01*
X120277000Y-78771750D01*
X120277000Y-81661000D01*
X120297000Y-81661000D01*
X120297000Y-81915000D01*
X120277000Y-81915000D01*
X120277000Y-81935000D01*
X120023000Y-81935000D01*
X120023000Y-81915000D01*
X118173750Y-81915000D01*
X118015000Y-82073750D01*
X118015000Y-83723701D01*
X117385451Y-83573808D01*
X117368027Y-83573156D01*
X117351845Y-83566661D01*
X116344850Y-83377849D01*
X115470221Y-83190429D01*
X114663785Y-83004328D01*
X113987474Y-82819880D01*
X113361017Y-82631943D01*
X113356282Y-82631491D01*
X113352052Y-82629318D01*
X112482978Y-82381011D01*
X111232549Y-81943361D01*
X109994651Y-81510097D01*
X108399715Y-80773972D01*
X106860433Y-79911975D01*
X105187113Y-78796428D01*
X103617109Y-77603225D01*
X103597769Y-77593798D01*
X103582572Y-77578570D01*
X103473881Y-77533415D01*
X103368086Y-77481850D01*
X103346613Y-77480542D01*
X103326742Y-77472287D01*
X103209044Y-77472164D01*
X103091570Y-77465010D01*
X103071228Y-77472020D01*
X103049714Y-77471998D01*
X102940928Y-77516925D01*
X102829658Y-77555272D01*
X102813550Y-77569531D01*
X102793663Y-77577744D01*
X102412663Y-77831744D01*
X102406854Y-77837541D01*
X102399342Y-77840845D01*
X101835524Y-78235518D01*
X100280685Y-78833533D01*
X100024283Y-78919000D01*
X99799108Y-78919000D01*
X99635298Y-78837095D01*
X99579500Y-78792457D01*
X99579500Y-78653092D01*
X99769386Y-78463206D01*
X100874388Y-77707152D01*
X101902316Y-77223421D01*
X101929667Y-77203218D01*
X101961740Y-77191936D01*
X102040288Y-77121509D01*
X102125147Y-77058828D01*
X102142683Y-77029699D01*
X102168000Y-77007000D01*
X102213614Y-76911880D01*
X102268031Y-76821491D01*
X102273086Y-76787862D01*
X102287786Y-76757208D01*
X102293528Y-76651874D01*
X102309211Y-76547540D01*
X102301013Y-76514541D01*
X102302864Y-76480591D01*
X102267859Y-76381080D01*
X102242422Y-76278684D01*
X102222217Y-76251330D01*
X102210936Y-76219260D01*
X102140515Y-76140719D01*
X102077829Y-76055853D01*
X102048699Y-76038316D01*
X102026000Y-76013000D01*
X101825973Y-75862980D01*
X101255981Y-75235988D01*
X100653420Y-74452660D01*
X100199761Y-73772171D01*
X99967293Y-73191000D01*
X109089560Y-73191000D01*
X109089560Y-74891000D01*
X109138843Y-75138765D01*
X109279191Y-75348809D01*
X109348000Y-75394786D01*
X109348000Y-76878214D01*
X109279191Y-76924191D01*
X109138843Y-77134235D01*
X109089560Y-77382000D01*
X109089560Y-79082000D01*
X109138843Y-79329765D01*
X109279191Y-79539809D01*
X109489235Y-79680157D01*
X109737000Y-79729440D01*
X110737000Y-79729440D01*
X110984765Y-79680157D01*
X111194809Y-79539809D01*
X111335157Y-79329765D01*
X111384440Y-79082000D01*
X111384440Y-77382000D01*
X112389560Y-77382000D01*
X112389560Y-79082000D01*
X112438843Y-79329765D01*
X112579191Y-79539809D01*
X112789235Y-79680157D01*
X113037000Y-79729440D01*
X114037000Y-79729440D01*
X114284765Y-79680157D01*
X114494809Y-79539809D01*
X114635157Y-79329765D01*
X114676682Y-79121000D01*
X116543839Y-79121000D01*
X116682058Y-79455517D01*
X116972954Y-79746921D01*
X117353223Y-79904822D01*
X117764971Y-79905181D01*
X118015000Y-79801872D01*
X118015000Y-81502250D01*
X118173750Y-81661000D01*
X120023000Y-81661000D01*
X120023000Y-78771750D01*
X119864250Y-78613000D01*
X118573680Y-78613000D01*
X118437942Y-78284487D01*
X118347569Y-78193957D01*
X118427500Y-78114026D01*
X118512301Y-78198827D01*
X118745690Y-78295500D01*
X119475250Y-78295500D01*
X119634000Y-78136750D01*
X119634000Y-77025500D01*
X117221000Y-77025500D01*
X117221000Y-77045500D01*
X116967000Y-77045500D01*
X116967000Y-77025500D01*
X115728750Y-77025500D01*
X115570000Y-77184250D01*
X115570000Y-77343000D01*
X114676682Y-77343000D01*
X114635157Y-77134235D01*
X114494809Y-76924191D01*
X114284765Y-76783843D01*
X114037000Y-76734560D01*
X113037000Y-76734560D01*
X112789235Y-76783843D01*
X112579191Y-76924191D01*
X112438843Y-77134235D01*
X112389560Y-77382000D01*
X111384440Y-77382000D01*
X111335157Y-77134235D01*
X111194809Y-76924191D01*
X111126000Y-76878214D01*
X111126000Y-75394786D01*
X111194809Y-75348809D01*
X111335157Y-75138765D01*
X111384440Y-74891000D01*
X111384440Y-73191000D01*
X111335157Y-72943235D01*
X111194809Y-72733191D01*
X110984765Y-72592843D01*
X110737000Y-72543560D01*
X109737000Y-72543560D01*
X109489235Y-72592843D01*
X109279191Y-72733191D01*
X109138843Y-72943235D01*
X109089560Y-73191000D01*
X99967293Y-73191000D01*
X99846218Y-72888313D01*
X99825270Y-72856120D01*
X99814239Y-72819328D01*
X99750305Y-72740910D01*
X99695129Y-72656113D01*
X99663458Y-72634388D01*
X99639186Y-72604617D01*
X99550113Y-72556637D01*
X99466683Y-72499407D01*
X99429104Y-72491455D01*
X99395291Y-72473241D01*
X99294641Y-72463000D01*
X99195657Y-72442053D01*
X99157899Y-72449086D01*
X99119686Y-72445198D01*
X97819765Y-72569000D01*
X96306707Y-72569000D01*
X95873096Y-72438917D01*
X95770837Y-72370744D01*
X95770836Y-72370743D01*
X95737220Y-72348333D01*
X95729398Y-72332689D01*
X95716752Y-72282104D01*
X95724634Y-72266339D01*
X95786445Y-72241615D01*
X96225253Y-72131913D01*
X96867213Y-72015193D01*
X98356963Y-71891047D01*
X98461560Y-71861027D01*
X98568332Y-71840021D01*
X98593819Y-71823068D01*
X98623241Y-71814624D01*
X98708395Y-71746857D01*
X98798994Y-71686594D01*
X98816051Y-71661182D01*
X98840005Y-71642119D01*
X98892742Y-71546925D01*
X98953385Y-71456577D01*
X98959419Y-71426568D01*
X98974253Y-71399792D01*
X98986547Y-71291663D01*
X99007998Y-71184985D01*
X99002090Y-71154954D01*
X99005548Y-71124538D01*
X98975526Y-71019933D01*
X98954521Y-70913167D01*
X98634409Y-70135750D01*
X109093000Y-70135750D01*
X109093000Y-70738309D01*
X109189673Y-70971698D01*
X109368301Y-71150327D01*
X109601690Y-71247000D01*
X110204250Y-71247000D01*
X110363000Y-71088250D01*
X110363000Y-69977000D01*
X110617000Y-69977000D01*
X110617000Y-71088250D01*
X110775750Y-71247000D01*
X111378310Y-71247000D01*
X111611699Y-71150327D01*
X111790327Y-70971698D01*
X111887000Y-70738309D01*
X111887000Y-70135750D01*
X111728250Y-69977000D01*
X110617000Y-69977000D01*
X110363000Y-69977000D01*
X109251750Y-69977000D01*
X109093000Y-70135750D01*
X98634409Y-70135750D01*
X98521889Y-69862489D01*
X98226140Y-68916094D01*
X98049796Y-67975594D01*
X97925831Y-66549993D01*
X97919700Y-66528918D01*
X97920767Y-66507000D01*
X97881208Y-66396599D01*
X97848450Y-66283991D01*
X97834723Y-66266869D01*
X97827320Y-66246208D01*
X97748530Y-66159357D01*
X97675167Y-66067849D01*
X97655927Y-66057281D01*
X97641184Y-66041029D01*
X97535158Y-65990942D01*
X97432359Y-65934474D01*
X97410543Y-65932073D01*
X97390700Y-65922699D01*
X96882700Y-65795699D01*
X96865575Y-65794866D01*
X96849742Y-65788288D01*
X95584562Y-65535252D01*
X94728176Y-65351741D01*
X94525366Y-65290898D01*
X94871486Y-65226000D01*
X96774000Y-65226000D01*
X96823755Y-65216103D01*
X96874409Y-65218864D01*
X96958390Y-65189322D01*
X97045705Y-65171954D01*
X97087887Y-65143769D01*
X97135740Y-65126936D01*
X97202020Y-65067508D01*
X97276046Y-65018046D01*
X97304230Y-64975865D01*
X97342000Y-64942000D01*
X97532500Y-64688000D01*
X97570994Y-64607727D01*
X97620454Y-64533705D01*
X97630351Y-64483949D01*
X97652286Y-64438208D01*
X97657131Y-64349318D01*
X97674500Y-64262000D01*
X97674500Y-63918267D01*
X97797599Y-62748826D01*
X97796672Y-62738724D01*
X97799409Y-62728955D01*
X97860501Y-61934756D01*
X98105336Y-60465745D01*
X98402751Y-59216606D01*
X103486092Y-59216606D01*
X103576675Y-59672000D01*
X103834635Y-60058063D01*
X105994437Y-62217865D01*
X106380500Y-62475824D01*
X106835894Y-62566408D01*
X107291288Y-62475824D01*
X107677351Y-62217865D01*
X107935310Y-61831802D01*
X108025894Y-61376408D01*
X107935310Y-60921014D01*
X107677351Y-60534951D01*
X105517549Y-58375149D01*
X105131486Y-58117189D01*
X104676092Y-58026606D01*
X104220698Y-58117189D01*
X103834635Y-58375149D01*
X103576675Y-58761212D01*
X103486092Y-59216606D01*
X98402751Y-59216606D01*
X98415258Y-59164077D01*
X98726040Y-57983106D01*
X99157277Y-56627790D01*
X99528718Y-55699187D01*
X99530155Y-55691472D01*
X99534294Y-55684798D01*
X99902211Y-54703686D01*
X99971580Y-54564947D01*
X104103211Y-54564947D01*
X105372991Y-57863669D01*
X107808481Y-60425367D01*
X111038900Y-61860046D01*
X111487553Y-61949289D01*
X112903000Y-61921911D01*
X112903000Y-53149500D01*
X113157000Y-53149500D01*
X113157000Y-61921911D01*
X114572447Y-61949289D01*
X117871169Y-60679509D01*
X120432867Y-58244019D01*
X121867546Y-55013600D01*
X121956789Y-54564947D01*
X121929411Y-53149500D01*
X113157000Y-53149500D01*
X112903000Y-53149500D01*
X104130589Y-53149500D01*
X104103211Y-54564947D01*
X99971580Y-54564947D01*
X100507055Y-53493999D01*
X101182519Y-52388693D01*
X101682756Y-51638337D01*
X101690990Y-51618400D01*
X101705283Y-51602248D01*
X101776563Y-51480053D01*
X104103211Y-51480053D01*
X104130589Y-52895500D01*
X112903000Y-52895500D01*
X112903000Y-44123089D01*
X113157000Y-44123089D01*
X113157000Y-52895500D01*
X121929411Y-52895500D01*
X121956789Y-51480053D01*
X120687009Y-48181331D01*
X118251519Y-45619633D01*
X116110092Y-44668592D01*
X118034106Y-44668592D01*
X118124689Y-45123986D01*
X118382649Y-45510049D01*
X120542451Y-47669851D01*
X120928514Y-47927810D01*
X121299977Y-48001699D01*
X121551896Y-48253618D01*
X121840309Y-48446330D01*
X122180514Y-48514000D01*
X124781818Y-48514000D01*
X124823343Y-48722765D01*
X124963691Y-48932809D01*
X125173735Y-49073157D01*
X125421500Y-49122440D01*
X126421500Y-49122440D01*
X126669265Y-49073157D01*
X126879309Y-48932809D01*
X127019657Y-48722765D01*
X127068940Y-48475000D01*
X127068940Y-46775000D01*
X127019657Y-46527235D01*
X126879309Y-46317191D01*
X126669265Y-46176843D01*
X126421500Y-46127560D01*
X125421500Y-46127560D01*
X125173735Y-46176843D01*
X124963691Y-46317191D01*
X124823343Y-46527235D01*
X124781818Y-46736000D01*
X122555530Y-46736000D01*
X122483324Y-46373000D01*
X122225365Y-45986937D01*
X120065563Y-43827135D01*
X119679500Y-43569175D01*
X119224106Y-43478592D01*
X118768712Y-43569175D01*
X118382649Y-43827135D01*
X118124689Y-44213198D01*
X118034106Y-44668592D01*
X116110092Y-44668592D01*
X115021100Y-44184954D01*
X114572447Y-44095711D01*
X113157000Y-44123089D01*
X112903000Y-44123089D01*
X111487553Y-44095711D01*
X108188831Y-45365491D01*
X105627133Y-47800981D01*
X104192454Y-51031400D01*
X104103211Y-51480053D01*
X101776563Y-51480053D01*
X102149783Y-50840249D01*
X102165553Y-50794465D01*
X102192454Y-50754205D01*
X102210268Y-50664650D01*
X102240003Y-50578323D01*
X102237053Y-50529994D01*
X102246500Y-50482500D01*
X102228687Y-50392946D01*
X102223123Y-50301810D01*
X102201900Y-50258285D01*
X102192454Y-50210795D01*
X102141726Y-50134874D01*
X102101709Y-50052805D01*
X102065449Y-50020718D01*
X102038546Y-49980454D01*
X100863301Y-48805209D01*
X100520606Y-48364601D01*
X100316648Y-47752728D01*
X100083616Y-46704082D01*
X100025364Y-45539042D01*
X100145950Y-43971418D01*
X100324413Y-43019619D01*
X100568063Y-42105931D01*
X100804102Y-41338803D01*
X101154032Y-40580621D01*
X101447571Y-40052252D01*
X101965486Y-39246606D01*
X102147576Y-39064516D01*
X102482810Y-38896898D01*
X102861947Y-38802114D01*
X103473704Y-38746500D01*
X103942698Y-38746500D01*
X104826257Y-38923212D01*
X104826258Y-38923212D01*
X105754782Y-39108917D01*
X106417132Y-39289558D01*
X107398942Y-39596374D01*
X109016113Y-40218363D01*
X110318138Y-40776373D01*
X112585478Y-41910043D01*
X113220479Y-42227543D01*
X113311553Y-42252484D01*
X113398758Y-42288712D01*
X114033757Y-42415712D01*
X114127385Y-42415810D01*
X114220228Y-42427927D01*
X115172728Y-42364427D01*
X115210146Y-42354356D01*
X115248888Y-42355196D01*
X116328388Y-42164696D01*
X116336036Y-42161721D01*
X116344242Y-42161712D01*
X117261045Y-41978351D01*
X118549953Y-41855598D01*
X120313996Y-41729595D01*
X121444355Y-41666798D01*
X123215341Y-41603548D01*
X123215342Y-41603548D01*
X125031902Y-41540908D01*
X126912846Y-41603606D01*
X127006300Y-41588234D01*
X127100951Y-41584693D01*
X127141829Y-41565941D01*
X127186201Y-41558642D01*
X127266660Y-41508676D01*
X127352749Y-41469184D01*
X127383336Y-41436219D01*
X127421542Y-41412493D01*
X127476758Y-41335536D01*
X127541177Y-41266109D01*
X128036410Y-40461357D01*
X128650523Y-39601599D01*
X129467239Y-38533585D01*
X130351465Y-37396723D01*
X131085853Y-36478739D01*
X131639106Y-35925486D01*
X132373555Y-35453340D01*
X133372517Y-35175851D01*
X134121319Y-35060650D01*
X135250034Y-35001244D01*
X136076171Y-35056320D01*
M02*
