G04 #@! TF.GenerationSoftware,KiCad,Pcbnew,no-vcs-found-4b010ca~60~ubuntu16.04.1*
G04 #@! TF.CreationDate,2017-10-03T11:45:03+03:00*
G04 #@! TF.ProjectId,TuxCon_Kitty_Rev_A,547578436F6E5F4B697474795F526576,rev?*
G04 #@! TF.SameCoordinates,Original*
G04 #@! TF.FileFunction,Soldermask,Bot*
G04 #@! TF.FilePolarity,Negative*
%FSLAX46Y46*%
G04 Gerber Fmt 4.6, Leading zero omitted, Abs format (unit mm)*
G04 Created by KiCad (PCBNEW no-vcs-found-4b010ca~60~ubuntu16.04.1) date Tue Oct  3 11:45:03 2017*
%MOMM*%
%LPD*%
G01*
G04 APERTURE LIST*
%ADD10R,3.400000X5.480000*%
%ADD11R,1.924000X4.210000*%
%ADD12C,7.400000*%
%ADD13R,2.301600X0.701600*%
%ADD14C,1.924000*%
%ADD15R,1.924000X1.924000*%
%ADD16C,1.510000*%
%ADD17C,1.510000*%
%ADD18C,16.900000*%
%ADD19R,1.879600X1.625600*%
%ADD20R,1.400000X2.100000*%
%ADD21R,1.625600X1.879600*%
G04 APERTURE END LIST*
D10*
X120150000Y-81788000D03*
X132850000Y-81788000D03*
D11*
X125230000Y-82423000D03*
X127770000Y-82423000D03*
D12*
X126500000Y-60579000D03*
D13*
X124276500Y-65976500D03*
X124276500Y-67246500D03*
X124276500Y-68516500D03*
X124276500Y-69786500D03*
X130746500Y-69786500D03*
X130746500Y-68516500D03*
X130746500Y-67246500D03*
X130746500Y-65976500D03*
D14*
X110490000Y-67310000D03*
D15*
X110490000Y-69850000D03*
X141478000Y-69786500D03*
D14*
X141478000Y-67246500D03*
D16*
X120304007Y-45748493D03*
D17*
X121346990Y-46791476D02*
X119261024Y-44705510D01*
D18*
X113030000Y-53022500D03*
D16*
X105755993Y-60296507D03*
D17*
X106798976Y-61339490D02*
X104713010Y-59253524D01*
D14*
X142752513Y-46268936D03*
X144548564Y-48064987D03*
D19*
X119761000Y-74104500D03*
X119761000Y-76898500D03*
X117094000Y-76898500D03*
X117094000Y-74104500D03*
D20*
X129221500Y-47625000D03*
X125921500Y-47625000D03*
X110237000Y-78232000D03*
X113537000Y-78232000D03*
X110237000Y-74041000D03*
X113537000Y-74041000D03*
D19*
X145097500Y-67246500D03*
X145097500Y-64452500D03*
X106807000Y-64516000D03*
X106807000Y-67310000D03*
D21*
X119824500Y-69977000D03*
X117030500Y-69977000D03*
X119824500Y-67246500D03*
X117030500Y-67246500D03*
D19*
X134175500Y-65976500D03*
X134175500Y-63182500D03*
X122745500Y-76962000D03*
X122745500Y-74168000D03*
X125222000Y-74168000D03*
X125222000Y-76962000D03*
M02*
