G04 #@! TF.GenerationSoftware,KiCad,Pcbnew,no-vcs-found-4b010ca~60~ubuntu16.04.1*
G04 #@! TF.CreationDate,2017-10-03T11:45:03+03:00*
G04 #@! TF.ProjectId,TuxCon_Kitty_Rev_A,547578436F6E5F4B697474795F526576,rev?*
G04 #@! TF.SameCoordinates,Original*
G04 #@! TF.FileFunction,Copper,L1,Top,Signal*
G04 #@! TF.FilePolarity,Positive*
%FSLAX46Y46*%
G04 Gerber Fmt 4.6, Leading zero omitted, Abs format (unit mm)*
G04 Created by KiCad (PCBNEW no-vcs-found-4b010ca~60~ubuntu16.04.1) date Tue Oct  3 11:45:03 2017*
%MOMM*%
%LPD*%
G01*
G04 APERTURE LIST*
%ADD10O,25.000000X15.000000*%
%ADD11R,1.524000X3.810000*%
%ADD12C,1.524000*%
%ADD13R,1.524000X1.524000*%
%ADD14C,1.110000*%
%ADD15C,1.110000*%
%ADD16C,0.800000*%
%ADD17C,0.508000*%
%ADD18C,0.254000*%
G04 APERTURE END LIST*
D10*
X126465500Y-71520000D03*
D11*
X127770000Y-82423000D03*
X125230000Y-82423000D03*
D12*
X110490000Y-67310000D03*
D13*
X110490000Y-69850000D03*
X141478000Y-69786500D03*
D12*
X141478000Y-67246500D03*
D14*
X120304007Y-45748493D03*
D15*
X121346990Y-46791476D02*
X119261024Y-44705510D01*
D14*
X105755993Y-60296507D03*
D15*
X106798976Y-61339490D02*
X104713010Y-59253524D01*
D12*
X142752513Y-46268936D03*
X144548564Y-48064987D03*
D16*
X119824500Y-72072500D03*
X132715000Y-62865000D03*
X115062000Y-65976500D03*
X117560000Y-78870002D03*
X137200000Y-64580000D03*
X114998500Y-64516000D03*
X123380500Y-82423000D03*
D17*
X115062000Y-65976500D02*
X118173500Y-62865000D01*
X118173500Y-62865000D02*
X132715000Y-62865000D01*
X126500000Y-80010000D02*
X118699998Y-80010000D01*
X127770000Y-81280000D02*
X126500000Y-80010000D01*
X127770000Y-82423000D02*
X127770000Y-81280000D01*
X118699998Y-80010000D02*
X117959999Y-79270001D01*
X117959999Y-79270001D02*
X117560000Y-78870002D01*
X134630999Y-62010999D02*
X136800001Y-64180001D01*
X114998500Y-64516000D02*
X117503501Y-62010999D01*
X136800001Y-64180001D02*
X137200000Y-64580000D01*
X117503501Y-62010999D02*
X134630999Y-62010999D01*
X123380500Y-82423000D02*
X125230000Y-82423000D01*
D18*
G36*
X136076171Y-35056320D02*
X136957136Y-35331622D01*
X138095505Y-35900806D01*
X139416146Y-37049190D01*
X140364751Y-38472098D01*
X141177400Y-39909860D01*
X141263121Y-40009429D01*
X141346767Y-40110716D01*
X141353311Y-40114188D01*
X141358145Y-40119803D01*
X141475431Y-40178982D01*
X141591483Y-40240557D01*
X141598859Y-40241261D01*
X141605473Y-40244598D01*
X141736462Y-40254387D01*
X141867259Y-40266864D01*
X141874344Y-40264691D01*
X141881731Y-40265243D01*
X142006498Y-40224159D01*
X142132111Y-40185634D01*
X142940709Y-39750236D01*
X143991579Y-39255709D01*
X144861252Y-38882992D01*
X145792093Y-38510656D01*
X146857803Y-38134523D01*
X146860751Y-38132773D01*
X146864138Y-38132253D01*
X147553606Y-37881537D01*
X148094316Y-37701300D01*
X149258116Y-37395037D01*
X149535418Y-37339577D01*
X149910457Y-37286000D01*
X150217096Y-37286000D01*
X150359845Y-37321687D01*
X150415173Y-37340130D01*
X150504891Y-37407419D01*
X150683333Y-37630471D01*
X150895726Y-37949060D01*
X151488391Y-39134390D01*
X151719568Y-39827920D01*
X151961351Y-40734607D01*
X152207462Y-42026689D01*
X152459136Y-43788409D01*
X152488678Y-43872390D01*
X152506046Y-43959705D01*
X152534231Y-44001887D01*
X152551064Y-44049740D01*
X152610492Y-44116020D01*
X152659954Y-44190046D01*
X152702135Y-44218230D01*
X152736000Y-44256000D01*
X152816273Y-44294494D01*
X152890295Y-44343954D01*
X152940051Y-44353851D01*
X152985792Y-44375786D01*
X153074682Y-44380631D01*
X153162000Y-44398000D01*
X154483781Y-44398000D01*
X155211100Y-44553854D01*
X156229386Y-45062997D01*
X157108842Y-45667623D01*
X157531836Y-46231614D01*
X157861064Y-47383911D01*
X157976500Y-48365122D01*
X157976500Y-49551879D01*
X157859674Y-50544900D01*
X157623312Y-51490348D01*
X157205052Y-52745128D01*
X156357167Y-54380334D01*
X155155291Y-56243242D01*
X153762769Y-57514675D01*
X153692189Y-57610573D01*
X153616365Y-57702389D01*
X153610471Y-57721606D01*
X153598560Y-57737790D01*
X153570051Y-57853398D01*
X153535136Y-57967241D01*
X153537044Y-57987246D01*
X153532232Y-58006761D01*
X153550136Y-58124481D01*
X153561443Y-58243017D01*
X153743741Y-58850676D01*
X153928260Y-59711766D01*
X153933105Y-59722991D01*
X153933699Y-59735200D01*
X154121278Y-60485519D01*
X154307565Y-61354854D01*
X154552628Y-62641438D01*
X154613091Y-63427455D01*
X154643241Y-63535086D01*
X154665046Y-63644705D01*
X154680375Y-63667646D01*
X154687817Y-63694214D01*
X154756857Y-63782111D01*
X154818954Y-63875046D01*
X154841894Y-63890374D01*
X154858938Y-63912073D01*
X154956366Y-63966861D01*
X155049295Y-64028954D01*
X155076355Y-64034337D01*
X155100405Y-64047861D01*
X155211379Y-64061195D01*
X155321000Y-64083000D01*
X156574113Y-64083000D01*
X157848987Y-64143708D01*
X158436805Y-64241678D01*
X158563758Y-64317850D01*
X158694150Y-64448242D01*
X158810412Y-64642012D01*
X158823393Y-64674463D01*
X158738887Y-64702632D01*
X157924500Y-64756924D01*
X157019228Y-64696573D01*
X156995486Y-64699672D01*
X156972000Y-64695000D01*
X155257500Y-64695000D01*
X154985795Y-64749046D01*
X154755454Y-64902954D01*
X154601546Y-65133295D01*
X154547500Y-65405000D01*
X154547500Y-66391462D01*
X154487264Y-67114302D01*
X154425381Y-67671252D01*
X154363256Y-68168251D01*
X154301806Y-68598401D01*
X154245565Y-68935850D01*
X154064518Y-69599687D01*
X154056444Y-69715000D01*
X154040806Y-69829528D01*
X154046822Y-69852422D01*
X154045169Y-69876038D01*
X154081838Y-69985664D01*
X154111217Y-70097458D01*
X154125537Y-70116307D01*
X154133047Y-70138759D01*
X154208880Y-70226010D01*
X154278803Y-70318048D01*
X154299247Y-70329983D01*
X154314776Y-70347850D01*
X154418214Y-70399434D01*
X154518047Y-70457715D01*
X156323344Y-71080231D01*
X157339825Y-71558576D01*
X157995407Y-71940999D01*
X157998166Y-71943758D01*
X158025383Y-72107063D01*
X158016602Y-72142188D01*
X158000913Y-72173565D01*
X157770787Y-72140690D01*
X156884029Y-71845104D01*
X155619049Y-71402361D01*
X155595638Y-71399054D01*
X155574527Y-71388402D01*
X154431527Y-71070902D01*
X154405162Y-71068932D01*
X154380743Y-71058787D01*
X154267844Y-71058669D01*
X154155269Y-71050256D01*
X154130155Y-71058526D01*
X154103715Y-71058498D01*
X153999374Y-71101590D01*
X153892139Y-71136900D01*
X153872101Y-71154152D01*
X153847663Y-71164244D01*
X153767752Y-71243988D01*
X153682197Y-71317645D01*
X153670286Y-71341251D01*
X153651570Y-71359928D01*
X153608259Y-71464180D01*
X153557402Y-71564973D01*
X153555431Y-71591341D01*
X153545288Y-71615757D01*
X153493048Y-71876957D01*
X153141914Y-72813313D01*
X152717121Y-73723584D01*
X152239825Y-74618515D01*
X151949249Y-75025321D01*
X151926246Y-75076298D01*
X151891957Y-75120478D01*
X151701457Y-75501478D01*
X151679652Y-75581101D01*
X151645412Y-75656221D01*
X151643410Y-75713446D01*
X151628287Y-75768669D01*
X151638612Y-75850573D01*
X151635725Y-75933080D01*
X151655774Y-75986714D01*
X151662935Y-76043522D01*
X151703819Y-76115243D01*
X151732725Y-76192571D01*
X151771772Y-76234449D01*
X151800128Y-76284193D01*
X151865347Y-76334809D01*
X151921644Y-76395189D01*
X153488757Y-77523511D01*
X153786759Y-77771845D01*
X153889088Y-77908284D01*
X153952602Y-78035312D01*
X153976000Y-78128904D01*
X153976000Y-78208096D01*
X153960229Y-78271179D01*
X153916166Y-78315242D01*
X153886489Y-78335027D01*
X153836596Y-78347500D01*
X153740303Y-78347500D01*
X153584977Y-78316435D01*
X153192195Y-78120044D01*
X152712799Y-77820421D01*
X152706657Y-77818093D01*
X152701792Y-77813680D01*
X152074790Y-77437479D01*
X151384182Y-76998000D01*
X151275203Y-76955684D01*
X151169076Y-76906697D01*
X151146759Y-76905809D01*
X151125939Y-76897725D01*
X151009073Y-76900334D01*
X150892266Y-76895688D01*
X150871308Y-76903409D01*
X150848979Y-76903907D01*
X150742004Y-76951042D01*
X150632315Y-76991449D01*
X150615907Y-77006602D01*
X150595469Y-77015607D01*
X150514677Y-77100088D01*
X150428797Y-77179398D01*
X149953562Y-77832846D01*
X149377232Y-78409176D01*
X148526499Y-79138376D01*
X147809984Y-79675762D01*
X146701977Y-80352877D01*
X145966016Y-80782188D01*
X144862144Y-81334124D01*
X144003402Y-81702156D01*
X142896645Y-82132562D01*
X141465047Y-82568266D01*
X140408843Y-82878914D01*
X139603850Y-83064682D01*
X139597860Y-83067380D01*
X139591300Y-83067699D01*
X138591688Y-83317602D01*
X137353848Y-83565170D01*
X136547783Y-83689180D01*
X135692976Y-83811295D01*
X134600290Y-83872000D01*
X129179440Y-83872000D01*
X129179440Y-80518000D01*
X129130157Y-80270235D01*
X128989809Y-80060191D01*
X128779765Y-79919843D01*
X128532000Y-79870560D01*
X127617796Y-79870560D01*
X127402236Y-79655000D01*
X131722830Y-79655000D01*
X134835960Y-79035760D01*
X137475144Y-77272314D01*
X139238590Y-74633130D01*
X139857830Y-71520000D01*
X139569855Y-70072250D01*
X140081000Y-70072250D01*
X140081000Y-70674809D01*
X140177673Y-70908198D01*
X140356301Y-71086827D01*
X140589690Y-71183500D01*
X141192250Y-71183500D01*
X141351000Y-71024750D01*
X141351000Y-69913500D01*
X141605000Y-69913500D01*
X141605000Y-71024750D01*
X141763750Y-71183500D01*
X142366310Y-71183500D01*
X142599699Y-71086827D01*
X142778327Y-70908198D01*
X142875000Y-70674809D01*
X142875000Y-70072250D01*
X142716250Y-69913500D01*
X141605000Y-69913500D01*
X141351000Y-69913500D01*
X140239750Y-69913500D01*
X140081000Y-70072250D01*
X139569855Y-70072250D01*
X139238590Y-68406870D01*
X138648115Y-67523161D01*
X140080758Y-67523161D01*
X140292990Y-68036803D01*
X140645072Y-68389500D01*
X140589690Y-68389500D01*
X140356301Y-68486173D01*
X140177673Y-68664802D01*
X140081000Y-68898191D01*
X140081000Y-69500750D01*
X140239750Y-69659500D01*
X141351000Y-69659500D01*
X141351000Y-69639500D01*
X141605000Y-69639500D01*
X141605000Y-69659500D01*
X142716250Y-69659500D01*
X142875000Y-69500750D01*
X142875000Y-68898191D01*
X142778327Y-68664802D01*
X142599699Y-68486173D01*
X142366310Y-68389500D01*
X142310386Y-68389500D01*
X142661629Y-68038870D01*
X142874757Y-67525600D01*
X142875242Y-66969839D01*
X142663010Y-66456197D01*
X142270370Y-66062871D01*
X141757100Y-65849743D01*
X141201339Y-65849258D01*
X140687697Y-66061490D01*
X140294371Y-66454130D01*
X140081243Y-66967400D01*
X140080758Y-67523161D01*
X138648115Y-67523161D01*
X137475144Y-65767686D01*
X137246695Y-65615041D01*
X137404971Y-65615179D01*
X137785515Y-65457942D01*
X138076919Y-65167046D01*
X138234820Y-64786777D01*
X138235179Y-64375029D01*
X138077942Y-63994485D01*
X137787046Y-63703081D01*
X137433521Y-63556285D01*
X135259617Y-61382381D01*
X135151182Y-61309927D01*
X134971205Y-61189670D01*
X134630999Y-61121999D01*
X117503501Y-61121999D01*
X117163295Y-61189670D01*
X116874883Y-61382381D01*
X114764412Y-63492852D01*
X114412985Y-63638058D01*
X114121581Y-63928954D01*
X113963680Y-64309223D01*
X113963321Y-64720971D01*
X114120558Y-65101515D01*
X114296732Y-65277997D01*
X114185081Y-65389454D01*
X114027180Y-65769723D01*
X114026821Y-66181471D01*
X114184058Y-66562015D01*
X114474954Y-66853419D01*
X114674914Y-66936449D01*
X113692410Y-68406870D01*
X113073170Y-71520000D01*
X113692410Y-74633130D01*
X115455856Y-77272314D01*
X116797479Y-78168758D01*
X116683081Y-78282956D01*
X116525180Y-78663225D01*
X116524821Y-79074973D01*
X116682058Y-79455517D01*
X116972954Y-79746921D01*
X117326479Y-79893717D01*
X118071380Y-80638618D01*
X118359793Y-80831330D01*
X118699998Y-80899000D01*
X123820560Y-80899000D01*
X123820560Y-81485047D01*
X123587277Y-81388180D01*
X123175529Y-81387821D01*
X122794985Y-81545058D01*
X122503581Y-81835954D01*
X122345680Y-82216223D01*
X122345321Y-82627971D01*
X122502558Y-83008515D01*
X122793454Y-83299919D01*
X123173723Y-83457820D01*
X123585471Y-83458179D01*
X123820560Y-83361043D01*
X123820560Y-83872000D01*
X118637857Y-83872000D01*
X117385451Y-83573808D01*
X117368027Y-83573156D01*
X117351845Y-83566661D01*
X116344850Y-83377849D01*
X115470221Y-83190429D01*
X114663785Y-83004328D01*
X113987474Y-82819880D01*
X113361017Y-82631943D01*
X113356282Y-82631491D01*
X113352052Y-82629318D01*
X112482978Y-82381011D01*
X111232549Y-81943361D01*
X109994651Y-81510097D01*
X108399715Y-80773972D01*
X106860433Y-79911975D01*
X105187113Y-78796428D01*
X103617109Y-77603225D01*
X103597769Y-77593798D01*
X103582572Y-77578570D01*
X103473881Y-77533415D01*
X103368086Y-77481850D01*
X103346613Y-77480542D01*
X103326742Y-77472287D01*
X103209044Y-77472164D01*
X103091570Y-77465010D01*
X103071228Y-77472020D01*
X103049714Y-77471998D01*
X102940928Y-77516925D01*
X102829658Y-77555272D01*
X102813550Y-77569531D01*
X102793663Y-77577744D01*
X102412663Y-77831744D01*
X102406854Y-77837541D01*
X102399342Y-77840845D01*
X101835524Y-78235518D01*
X100280685Y-78833533D01*
X100024283Y-78919000D01*
X99799108Y-78919000D01*
X99635298Y-78837095D01*
X99579500Y-78792457D01*
X99579500Y-78653092D01*
X99769386Y-78463206D01*
X100874388Y-77707152D01*
X101902316Y-77223421D01*
X101929667Y-77203218D01*
X101961740Y-77191936D01*
X102040288Y-77121509D01*
X102125147Y-77058828D01*
X102142683Y-77029699D01*
X102168000Y-77007000D01*
X102213614Y-76911880D01*
X102268031Y-76821491D01*
X102273086Y-76787862D01*
X102287786Y-76757208D01*
X102293528Y-76651874D01*
X102309211Y-76547540D01*
X102301013Y-76514541D01*
X102302864Y-76480591D01*
X102267859Y-76381080D01*
X102242422Y-76278684D01*
X102222217Y-76251330D01*
X102210936Y-76219260D01*
X102140515Y-76140719D01*
X102077829Y-76055853D01*
X102048699Y-76038316D01*
X102026000Y-76013000D01*
X101825973Y-75862980D01*
X101255981Y-75235988D01*
X100653420Y-74452660D01*
X100199761Y-73772171D01*
X99846218Y-72888313D01*
X99825270Y-72856120D01*
X99814239Y-72819328D01*
X99750305Y-72740910D01*
X99695129Y-72656113D01*
X99663458Y-72634388D01*
X99639186Y-72604617D01*
X99550113Y-72556637D01*
X99466683Y-72499407D01*
X99429104Y-72491455D01*
X99395291Y-72473241D01*
X99294641Y-72463000D01*
X99195657Y-72442053D01*
X99157899Y-72449086D01*
X99119686Y-72445198D01*
X97819765Y-72569000D01*
X96306707Y-72569000D01*
X95873096Y-72438917D01*
X95770837Y-72370744D01*
X95770836Y-72370743D01*
X95737220Y-72348333D01*
X95729398Y-72332689D01*
X95716752Y-72282104D01*
X95724634Y-72266339D01*
X95786445Y-72241615D01*
X96225253Y-72131913D01*
X96867213Y-72015193D01*
X98356963Y-71891047D01*
X98461560Y-71861027D01*
X98568332Y-71840021D01*
X98593819Y-71823068D01*
X98623241Y-71814624D01*
X98708395Y-71746857D01*
X98798994Y-71686594D01*
X98816051Y-71661182D01*
X98840005Y-71642119D01*
X98892742Y-71546925D01*
X98953385Y-71456577D01*
X98959419Y-71426568D01*
X98974253Y-71399792D01*
X98986547Y-71291663D01*
X99007998Y-71184985D01*
X99002090Y-71154954D01*
X99005548Y-71124538D01*
X98975526Y-71019933D01*
X98954521Y-70913167D01*
X98634409Y-70135750D01*
X109093000Y-70135750D01*
X109093000Y-70738309D01*
X109189673Y-70971698D01*
X109368301Y-71150327D01*
X109601690Y-71247000D01*
X110204250Y-71247000D01*
X110363000Y-71088250D01*
X110363000Y-69977000D01*
X110617000Y-69977000D01*
X110617000Y-71088250D01*
X110775750Y-71247000D01*
X111378310Y-71247000D01*
X111611699Y-71150327D01*
X111790327Y-70971698D01*
X111887000Y-70738309D01*
X111887000Y-70135750D01*
X111728250Y-69977000D01*
X110617000Y-69977000D01*
X110363000Y-69977000D01*
X109251750Y-69977000D01*
X109093000Y-70135750D01*
X98634409Y-70135750D01*
X98521889Y-69862489D01*
X98226140Y-68916094D01*
X98049796Y-67975594D01*
X98015976Y-67586661D01*
X109092758Y-67586661D01*
X109304990Y-68100303D01*
X109657072Y-68453000D01*
X109601690Y-68453000D01*
X109368301Y-68549673D01*
X109189673Y-68728302D01*
X109093000Y-68961691D01*
X109093000Y-69564250D01*
X109251750Y-69723000D01*
X110363000Y-69723000D01*
X110363000Y-69703000D01*
X110617000Y-69703000D01*
X110617000Y-69723000D01*
X111728250Y-69723000D01*
X111887000Y-69564250D01*
X111887000Y-68961691D01*
X111790327Y-68728302D01*
X111611699Y-68549673D01*
X111378310Y-68453000D01*
X111322386Y-68453000D01*
X111673629Y-68102370D01*
X111886757Y-67589100D01*
X111887242Y-67033339D01*
X111675010Y-66519697D01*
X111282370Y-66126371D01*
X110769100Y-65913243D01*
X110213339Y-65912758D01*
X109699697Y-66124990D01*
X109306371Y-66517630D01*
X109093243Y-67030900D01*
X109092758Y-67586661D01*
X98015976Y-67586661D01*
X97925831Y-66549993D01*
X97919700Y-66528918D01*
X97920767Y-66507000D01*
X97881208Y-66396599D01*
X97848450Y-66283991D01*
X97834723Y-66266869D01*
X97827320Y-66246208D01*
X97748530Y-66159357D01*
X97675167Y-66067849D01*
X97655927Y-66057281D01*
X97641184Y-66041029D01*
X97535158Y-65990942D01*
X97432359Y-65934474D01*
X97410543Y-65932073D01*
X97390700Y-65922699D01*
X96882700Y-65795699D01*
X96865575Y-65794866D01*
X96849742Y-65788288D01*
X95584562Y-65535252D01*
X94728176Y-65351741D01*
X94525366Y-65290898D01*
X94871486Y-65226000D01*
X96774000Y-65226000D01*
X96823755Y-65216103D01*
X96874409Y-65218864D01*
X96958390Y-65189322D01*
X97045705Y-65171954D01*
X97087887Y-65143769D01*
X97135740Y-65126936D01*
X97202020Y-65067508D01*
X97276046Y-65018046D01*
X97304230Y-64975865D01*
X97342000Y-64942000D01*
X97532500Y-64688000D01*
X97570994Y-64607727D01*
X97620454Y-64533705D01*
X97630351Y-64483949D01*
X97652286Y-64438208D01*
X97657131Y-64349318D01*
X97674500Y-64262000D01*
X97674500Y-63918267D01*
X97797599Y-62748826D01*
X97796672Y-62738724D01*
X97799409Y-62728955D01*
X97860501Y-61934756D01*
X98105336Y-60465745D01*
X98402751Y-59216606D01*
X103486092Y-59216606D01*
X103576675Y-59672000D01*
X103834635Y-60058063D01*
X105994437Y-62217865D01*
X106380500Y-62475824D01*
X106835894Y-62566408D01*
X107291288Y-62475824D01*
X107677351Y-62217865D01*
X107935310Y-61831802D01*
X108025894Y-61376408D01*
X107935310Y-60921014D01*
X107677351Y-60534951D01*
X105517549Y-58375149D01*
X105131486Y-58117189D01*
X104676092Y-58026606D01*
X104220698Y-58117189D01*
X103834635Y-58375149D01*
X103576675Y-58761212D01*
X103486092Y-59216606D01*
X98402751Y-59216606D01*
X98415258Y-59164077D01*
X98726040Y-57983106D01*
X99157277Y-56627790D01*
X99528718Y-55699187D01*
X99530155Y-55691472D01*
X99534294Y-55684798D01*
X99902211Y-54703686D01*
X100507055Y-53493999D01*
X101182519Y-52388693D01*
X101682756Y-51638337D01*
X101690990Y-51618400D01*
X101705283Y-51602248D01*
X102149783Y-50840249D01*
X102165553Y-50794465D01*
X102192454Y-50754205D01*
X102210268Y-50664650D01*
X102240003Y-50578323D01*
X102237053Y-50529994D01*
X102246500Y-50482500D01*
X102228687Y-50392946D01*
X102223123Y-50301810D01*
X102201900Y-50258285D01*
X102192454Y-50210795D01*
X102141726Y-50134874D01*
X102101709Y-50052805D01*
X102065449Y-50020718D01*
X102038546Y-49980454D01*
X100863301Y-48805209D01*
X100557749Y-48412356D01*
X143167202Y-48412356D01*
X143405284Y-48914538D01*
X143817420Y-49287384D01*
X144201195Y-49446349D01*
X144421564Y-49324218D01*
X144421564Y-48191987D01*
X144675564Y-48191987D01*
X144675564Y-49324218D01*
X144895933Y-49446349D01*
X145398115Y-49208267D01*
X145770961Y-48796131D01*
X145929926Y-48412356D01*
X145807795Y-48191987D01*
X144675564Y-48191987D01*
X144421564Y-48191987D01*
X143289333Y-48191987D01*
X143167202Y-48412356D01*
X100557749Y-48412356D01*
X100520606Y-48364601D01*
X100316648Y-47752728D01*
X100083616Y-46704082D01*
X100025364Y-45539042D01*
X100092321Y-44668592D01*
X118034106Y-44668592D01*
X118124689Y-45123986D01*
X118382649Y-45510049D01*
X120542451Y-47669851D01*
X120928514Y-47927810D01*
X121383908Y-48018394D01*
X121839302Y-47927810D01*
X122225365Y-47669851D01*
X122483324Y-47283788D01*
X122573908Y-46828394D01*
X122517656Y-46545597D01*
X141355271Y-46545597D01*
X141567503Y-47059239D01*
X141960143Y-47452565D01*
X142473413Y-47665693D01*
X143029174Y-47666178D01*
X143221410Y-47586748D01*
X143167202Y-47717618D01*
X143289333Y-47937987D01*
X144241956Y-47937987D01*
X144354815Y-48050846D01*
X144534423Y-47871238D01*
X144421564Y-47758379D01*
X144421564Y-46805756D01*
X144675564Y-46805756D01*
X144675564Y-47937987D01*
X145807795Y-47937987D01*
X145929926Y-47717618D01*
X145691844Y-47215436D01*
X145279708Y-46842590D01*
X144895933Y-46683625D01*
X144675564Y-46805756D01*
X144421564Y-46805756D01*
X144201195Y-46683625D01*
X144066441Y-46747511D01*
X144149270Y-46548036D01*
X144149755Y-45992275D01*
X143937523Y-45478633D01*
X143544883Y-45085307D01*
X143031613Y-44872179D01*
X142475852Y-44871694D01*
X141962210Y-45083926D01*
X141568884Y-45476566D01*
X141355756Y-45989836D01*
X141355271Y-46545597D01*
X122517656Y-46545597D01*
X122483324Y-46373000D01*
X122225365Y-45986937D01*
X120065563Y-43827135D01*
X119679500Y-43569175D01*
X119224106Y-43478592D01*
X118768712Y-43569175D01*
X118382649Y-43827135D01*
X118124689Y-44213198D01*
X118034106Y-44668592D01*
X100092321Y-44668592D01*
X100145950Y-43971418D01*
X100324413Y-43019619D01*
X100568063Y-42105931D01*
X100804102Y-41338803D01*
X101154032Y-40580621D01*
X101447571Y-40052252D01*
X101965486Y-39246606D01*
X102147576Y-39064516D01*
X102482810Y-38896898D01*
X102861947Y-38802114D01*
X103473704Y-38746500D01*
X103942698Y-38746500D01*
X104826257Y-38923212D01*
X104826258Y-38923212D01*
X105754782Y-39108917D01*
X106417132Y-39289558D01*
X107398942Y-39596374D01*
X109016113Y-40218363D01*
X110318138Y-40776373D01*
X112585478Y-41910043D01*
X113220479Y-42227543D01*
X113311553Y-42252484D01*
X113398758Y-42288712D01*
X114033757Y-42415712D01*
X114127385Y-42415810D01*
X114220228Y-42427927D01*
X115172728Y-42364427D01*
X115210146Y-42354356D01*
X115248888Y-42355196D01*
X116328388Y-42164696D01*
X116336036Y-42161721D01*
X116344242Y-42161712D01*
X117261045Y-41978351D01*
X118549953Y-41855598D01*
X120313996Y-41729595D01*
X121444355Y-41666798D01*
X123215341Y-41603548D01*
X123215342Y-41603548D01*
X125031902Y-41540908D01*
X126912846Y-41603606D01*
X127006300Y-41588234D01*
X127100951Y-41584693D01*
X127141829Y-41565941D01*
X127186201Y-41558642D01*
X127266660Y-41508676D01*
X127352749Y-41469184D01*
X127383336Y-41436219D01*
X127421542Y-41412493D01*
X127476758Y-41335536D01*
X127541177Y-41266109D01*
X128036410Y-40461357D01*
X128650523Y-39601599D01*
X129467239Y-38533585D01*
X130351465Y-37396723D01*
X131085853Y-36478739D01*
X131639106Y-35925486D01*
X132373555Y-35453340D01*
X133372517Y-35175851D01*
X134121319Y-35060650D01*
X135250034Y-35001244D01*
X136076171Y-35056320D01*
X136076171Y-35056320D01*
G37*
X136076171Y-35056320D02*
X136957136Y-35331622D01*
X138095505Y-35900806D01*
X139416146Y-37049190D01*
X140364751Y-38472098D01*
X141177400Y-39909860D01*
X141263121Y-40009429D01*
X141346767Y-40110716D01*
X141353311Y-40114188D01*
X141358145Y-40119803D01*
X141475431Y-40178982D01*
X141591483Y-40240557D01*
X141598859Y-40241261D01*
X141605473Y-40244598D01*
X141736462Y-40254387D01*
X141867259Y-40266864D01*
X141874344Y-40264691D01*
X141881731Y-40265243D01*
X142006498Y-40224159D01*
X142132111Y-40185634D01*
X142940709Y-39750236D01*
X143991579Y-39255709D01*
X144861252Y-38882992D01*
X145792093Y-38510656D01*
X146857803Y-38134523D01*
X146860751Y-38132773D01*
X146864138Y-38132253D01*
X147553606Y-37881537D01*
X148094316Y-37701300D01*
X149258116Y-37395037D01*
X149535418Y-37339577D01*
X149910457Y-37286000D01*
X150217096Y-37286000D01*
X150359845Y-37321687D01*
X150415173Y-37340130D01*
X150504891Y-37407419D01*
X150683333Y-37630471D01*
X150895726Y-37949060D01*
X151488391Y-39134390D01*
X151719568Y-39827920D01*
X151961351Y-40734607D01*
X152207462Y-42026689D01*
X152459136Y-43788409D01*
X152488678Y-43872390D01*
X152506046Y-43959705D01*
X152534231Y-44001887D01*
X152551064Y-44049740D01*
X152610492Y-44116020D01*
X152659954Y-44190046D01*
X152702135Y-44218230D01*
X152736000Y-44256000D01*
X152816273Y-44294494D01*
X152890295Y-44343954D01*
X152940051Y-44353851D01*
X152985792Y-44375786D01*
X153074682Y-44380631D01*
X153162000Y-44398000D01*
X154483781Y-44398000D01*
X155211100Y-44553854D01*
X156229386Y-45062997D01*
X157108842Y-45667623D01*
X157531836Y-46231614D01*
X157861064Y-47383911D01*
X157976500Y-48365122D01*
X157976500Y-49551879D01*
X157859674Y-50544900D01*
X157623312Y-51490348D01*
X157205052Y-52745128D01*
X156357167Y-54380334D01*
X155155291Y-56243242D01*
X153762769Y-57514675D01*
X153692189Y-57610573D01*
X153616365Y-57702389D01*
X153610471Y-57721606D01*
X153598560Y-57737790D01*
X153570051Y-57853398D01*
X153535136Y-57967241D01*
X153537044Y-57987246D01*
X153532232Y-58006761D01*
X153550136Y-58124481D01*
X153561443Y-58243017D01*
X153743741Y-58850676D01*
X153928260Y-59711766D01*
X153933105Y-59722991D01*
X153933699Y-59735200D01*
X154121278Y-60485519D01*
X154307565Y-61354854D01*
X154552628Y-62641438D01*
X154613091Y-63427455D01*
X154643241Y-63535086D01*
X154665046Y-63644705D01*
X154680375Y-63667646D01*
X154687817Y-63694214D01*
X154756857Y-63782111D01*
X154818954Y-63875046D01*
X154841894Y-63890374D01*
X154858938Y-63912073D01*
X154956366Y-63966861D01*
X155049295Y-64028954D01*
X155076355Y-64034337D01*
X155100405Y-64047861D01*
X155211379Y-64061195D01*
X155321000Y-64083000D01*
X156574113Y-64083000D01*
X157848987Y-64143708D01*
X158436805Y-64241678D01*
X158563758Y-64317850D01*
X158694150Y-64448242D01*
X158810412Y-64642012D01*
X158823393Y-64674463D01*
X158738887Y-64702632D01*
X157924500Y-64756924D01*
X157019228Y-64696573D01*
X156995486Y-64699672D01*
X156972000Y-64695000D01*
X155257500Y-64695000D01*
X154985795Y-64749046D01*
X154755454Y-64902954D01*
X154601546Y-65133295D01*
X154547500Y-65405000D01*
X154547500Y-66391462D01*
X154487264Y-67114302D01*
X154425381Y-67671252D01*
X154363256Y-68168251D01*
X154301806Y-68598401D01*
X154245565Y-68935850D01*
X154064518Y-69599687D01*
X154056444Y-69715000D01*
X154040806Y-69829528D01*
X154046822Y-69852422D01*
X154045169Y-69876038D01*
X154081838Y-69985664D01*
X154111217Y-70097458D01*
X154125537Y-70116307D01*
X154133047Y-70138759D01*
X154208880Y-70226010D01*
X154278803Y-70318048D01*
X154299247Y-70329983D01*
X154314776Y-70347850D01*
X154418214Y-70399434D01*
X154518047Y-70457715D01*
X156323344Y-71080231D01*
X157339825Y-71558576D01*
X157995407Y-71940999D01*
X157998166Y-71943758D01*
X158025383Y-72107063D01*
X158016602Y-72142188D01*
X158000913Y-72173565D01*
X157770787Y-72140690D01*
X156884029Y-71845104D01*
X155619049Y-71402361D01*
X155595638Y-71399054D01*
X155574527Y-71388402D01*
X154431527Y-71070902D01*
X154405162Y-71068932D01*
X154380743Y-71058787D01*
X154267844Y-71058669D01*
X154155269Y-71050256D01*
X154130155Y-71058526D01*
X154103715Y-71058498D01*
X153999374Y-71101590D01*
X153892139Y-71136900D01*
X153872101Y-71154152D01*
X153847663Y-71164244D01*
X153767752Y-71243988D01*
X153682197Y-71317645D01*
X153670286Y-71341251D01*
X153651570Y-71359928D01*
X153608259Y-71464180D01*
X153557402Y-71564973D01*
X153555431Y-71591341D01*
X153545288Y-71615757D01*
X153493048Y-71876957D01*
X153141914Y-72813313D01*
X152717121Y-73723584D01*
X152239825Y-74618515D01*
X151949249Y-75025321D01*
X151926246Y-75076298D01*
X151891957Y-75120478D01*
X151701457Y-75501478D01*
X151679652Y-75581101D01*
X151645412Y-75656221D01*
X151643410Y-75713446D01*
X151628287Y-75768669D01*
X151638612Y-75850573D01*
X151635725Y-75933080D01*
X151655774Y-75986714D01*
X151662935Y-76043522D01*
X151703819Y-76115243D01*
X151732725Y-76192571D01*
X151771772Y-76234449D01*
X151800128Y-76284193D01*
X151865347Y-76334809D01*
X151921644Y-76395189D01*
X153488757Y-77523511D01*
X153786759Y-77771845D01*
X153889088Y-77908284D01*
X153952602Y-78035312D01*
X153976000Y-78128904D01*
X153976000Y-78208096D01*
X153960229Y-78271179D01*
X153916166Y-78315242D01*
X153886489Y-78335027D01*
X153836596Y-78347500D01*
X153740303Y-78347500D01*
X153584977Y-78316435D01*
X153192195Y-78120044D01*
X152712799Y-77820421D01*
X152706657Y-77818093D01*
X152701792Y-77813680D01*
X152074790Y-77437479D01*
X151384182Y-76998000D01*
X151275203Y-76955684D01*
X151169076Y-76906697D01*
X151146759Y-76905809D01*
X151125939Y-76897725D01*
X151009073Y-76900334D01*
X150892266Y-76895688D01*
X150871308Y-76903409D01*
X150848979Y-76903907D01*
X150742004Y-76951042D01*
X150632315Y-76991449D01*
X150615907Y-77006602D01*
X150595469Y-77015607D01*
X150514677Y-77100088D01*
X150428797Y-77179398D01*
X149953562Y-77832846D01*
X149377232Y-78409176D01*
X148526499Y-79138376D01*
X147809984Y-79675762D01*
X146701977Y-80352877D01*
X145966016Y-80782188D01*
X144862144Y-81334124D01*
X144003402Y-81702156D01*
X142896645Y-82132562D01*
X141465047Y-82568266D01*
X140408843Y-82878914D01*
X139603850Y-83064682D01*
X139597860Y-83067380D01*
X139591300Y-83067699D01*
X138591688Y-83317602D01*
X137353848Y-83565170D01*
X136547783Y-83689180D01*
X135692976Y-83811295D01*
X134600290Y-83872000D01*
X129179440Y-83872000D01*
X129179440Y-80518000D01*
X129130157Y-80270235D01*
X128989809Y-80060191D01*
X128779765Y-79919843D01*
X128532000Y-79870560D01*
X127617796Y-79870560D01*
X127402236Y-79655000D01*
X131722830Y-79655000D01*
X134835960Y-79035760D01*
X137475144Y-77272314D01*
X139238590Y-74633130D01*
X139857830Y-71520000D01*
X139569855Y-70072250D01*
X140081000Y-70072250D01*
X140081000Y-70674809D01*
X140177673Y-70908198D01*
X140356301Y-71086827D01*
X140589690Y-71183500D01*
X141192250Y-71183500D01*
X141351000Y-71024750D01*
X141351000Y-69913500D01*
X141605000Y-69913500D01*
X141605000Y-71024750D01*
X141763750Y-71183500D01*
X142366310Y-71183500D01*
X142599699Y-71086827D01*
X142778327Y-70908198D01*
X142875000Y-70674809D01*
X142875000Y-70072250D01*
X142716250Y-69913500D01*
X141605000Y-69913500D01*
X141351000Y-69913500D01*
X140239750Y-69913500D01*
X140081000Y-70072250D01*
X139569855Y-70072250D01*
X139238590Y-68406870D01*
X138648115Y-67523161D01*
X140080758Y-67523161D01*
X140292990Y-68036803D01*
X140645072Y-68389500D01*
X140589690Y-68389500D01*
X140356301Y-68486173D01*
X140177673Y-68664802D01*
X140081000Y-68898191D01*
X140081000Y-69500750D01*
X140239750Y-69659500D01*
X141351000Y-69659500D01*
X141351000Y-69639500D01*
X141605000Y-69639500D01*
X141605000Y-69659500D01*
X142716250Y-69659500D01*
X142875000Y-69500750D01*
X142875000Y-68898191D01*
X142778327Y-68664802D01*
X142599699Y-68486173D01*
X142366310Y-68389500D01*
X142310386Y-68389500D01*
X142661629Y-68038870D01*
X142874757Y-67525600D01*
X142875242Y-66969839D01*
X142663010Y-66456197D01*
X142270370Y-66062871D01*
X141757100Y-65849743D01*
X141201339Y-65849258D01*
X140687697Y-66061490D01*
X140294371Y-66454130D01*
X140081243Y-66967400D01*
X140080758Y-67523161D01*
X138648115Y-67523161D01*
X137475144Y-65767686D01*
X137246695Y-65615041D01*
X137404971Y-65615179D01*
X137785515Y-65457942D01*
X138076919Y-65167046D01*
X138234820Y-64786777D01*
X138235179Y-64375029D01*
X138077942Y-63994485D01*
X137787046Y-63703081D01*
X137433521Y-63556285D01*
X135259617Y-61382381D01*
X135151182Y-61309927D01*
X134971205Y-61189670D01*
X134630999Y-61121999D01*
X117503501Y-61121999D01*
X117163295Y-61189670D01*
X116874883Y-61382381D01*
X114764412Y-63492852D01*
X114412985Y-63638058D01*
X114121581Y-63928954D01*
X113963680Y-64309223D01*
X113963321Y-64720971D01*
X114120558Y-65101515D01*
X114296732Y-65277997D01*
X114185081Y-65389454D01*
X114027180Y-65769723D01*
X114026821Y-66181471D01*
X114184058Y-66562015D01*
X114474954Y-66853419D01*
X114674914Y-66936449D01*
X113692410Y-68406870D01*
X113073170Y-71520000D01*
X113692410Y-74633130D01*
X115455856Y-77272314D01*
X116797479Y-78168758D01*
X116683081Y-78282956D01*
X116525180Y-78663225D01*
X116524821Y-79074973D01*
X116682058Y-79455517D01*
X116972954Y-79746921D01*
X117326479Y-79893717D01*
X118071380Y-80638618D01*
X118359793Y-80831330D01*
X118699998Y-80899000D01*
X123820560Y-80899000D01*
X123820560Y-81485047D01*
X123587277Y-81388180D01*
X123175529Y-81387821D01*
X122794985Y-81545058D01*
X122503581Y-81835954D01*
X122345680Y-82216223D01*
X122345321Y-82627971D01*
X122502558Y-83008515D01*
X122793454Y-83299919D01*
X123173723Y-83457820D01*
X123585471Y-83458179D01*
X123820560Y-83361043D01*
X123820560Y-83872000D01*
X118637857Y-83872000D01*
X117385451Y-83573808D01*
X117368027Y-83573156D01*
X117351845Y-83566661D01*
X116344850Y-83377849D01*
X115470221Y-83190429D01*
X114663785Y-83004328D01*
X113987474Y-82819880D01*
X113361017Y-82631943D01*
X113356282Y-82631491D01*
X113352052Y-82629318D01*
X112482978Y-82381011D01*
X111232549Y-81943361D01*
X109994651Y-81510097D01*
X108399715Y-80773972D01*
X106860433Y-79911975D01*
X105187113Y-78796428D01*
X103617109Y-77603225D01*
X103597769Y-77593798D01*
X103582572Y-77578570D01*
X103473881Y-77533415D01*
X103368086Y-77481850D01*
X103346613Y-77480542D01*
X103326742Y-77472287D01*
X103209044Y-77472164D01*
X103091570Y-77465010D01*
X103071228Y-77472020D01*
X103049714Y-77471998D01*
X102940928Y-77516925D01*
X102829658Y-77555272D01*
X102813550Y-77569531D01*
X102793663Y-77577744D01*
X102412663Y-77831744D01*
X102406854Y-77837541D01*
X102399342Y-77840845D01*
X101835524Y-78235518D01*
X100280685Y-78833533D01*
X100024283Y-78919000D01*
X99799108Y-78919000D01*
X99635298Y-78837095D01*
X99579500Y-78792457D01*
X99579500Y-78653092D01*
X99769386Y-78463206D01*
X100874388Y-77707152D01*
X101902316Y-77223421D01*
X101929667Y-77203218D01*
X101961740Y-77191936D01*
X102040288Y-77121509D01*
X102125147Y-77058828D01*
X102142683Y-77029699D01*
X102168000Y-77007000D01*
X102213614Y-76911880D01*
X102268031Y-76821491D01*
X102273086Y-76787862D01*
X102287786Y-76757208D01*
X102293528Y-76651874D01*
X102309211Y-76547540D01*
X102301013Y-76514541D01*
X102302864Y-76480591D01*
X102267859Y-76381080D01*
X102242422Y-76278684D01*
X102222217Y-76251330D01*
X102210936Y-76219260D01*
X102140515Y-76140719D01*
X102077829Y-76055853D01*
X102048699Y-76038316D01*
X102026000Y-76013000D01*
X101825973Y-75862980D01*
X101255981Y-75235988D01*
X100653420Y-74452660D01*
X100199761Y-73772171D01*
X99846218Y-72888313D01*
X99825270Y-72856120D01*
X99814239Y-72819328D01*
X99750305Y-72740910D01*
X99695129Y-72656113D01*
X99663458Y-72634388D01*
X99639186Y-72604617D01*
X99550113Y-72556637D01*
X99466683Y-72499407D01*
X99429104Y-72491455D01*
X99395291Y-72473241D01*
X99294641Y-72463000D01*
X99195657Y-72442053D01*
X99157899Y-72449086D01*
X99119686Y-72445198D01*
X97819765Y-72569000D01*
X96306707Y-72569000D01*
X95873096Y-72438917D01*
X95770837Y-72370744D01*
X95770836Y-72370743D01*
X95737220Y-72348333D01*
X95729398Y-72332689D01*
X95716752Y-72282104D01*
X95724634Y-72266339D01*
X95786445Y-72241615D01*
X96225253Y-72131913D01*
X96867213Y-72015193D01*
X98356963Y-71891047D01*
X98461560Y-71861027D01*
X98568332Y-71840021D01*
X98593819Y-71823068D01*
X98623241Y-71814624D01*
X98708395Y-71746857D01*
X98798994Y-71686594D01*
X98816051Y-71661182D01*
X98840005Y-71642119D01*
X98892742Y-71546925D01*
X98953385Y-71456577D01*
X98959419Y-71426568D01*
X98974253Y-71399792D01*
X98986547Y-71291663D01*
X99007998Y-71184985D01*
X99002090Y-71154954D01*
X99005548Y-71124538D01*
X98975526Y-71019933D01*
X98954521Y-70913167D01*
X98634409Y-70135750D01*
X109093000Y-70135750D01*
X109093000Y-70738309D01*
X109189673Y-70971698D01*
X109368301Y-71150327D01*
X109601690Y-71247000D01*
X110204250Y-71247000D01*
X110363000Y-71088250D01*
X110363000Y-69977000D01*
X110617000Y-69977000D01*
X110617000Y-71088250D01*
X110775750Y-71247000D01*
X111378310Y-71247000D01*
X111611699Y-71150327D01*
X111790327Y-70971698D01*
X111887000Y-70738309D01*
X111887000Y-70135750D01*
X111728250Y-69977000D01*
X110617000Y-69977000D01*
X110363000Y-69977000D01*
X109251750Y-69977000D01*
X109093000Y-70135750D01*
X98634409Y-70135750D01*
X98521889Y-69862489D01*
X98226140Y-68916094D01*
X98049796Y-67975594D01*
X98015976Y-67586661D01*
X109092758Y-67586661D01*
X109304990Y-68100303D01*
X109657072Y-68453000D01*
X109601690Y-68453000D01*
X109368301Y-68549673D01*
X109189673Y-68728302D01*
X109093000Y-68961691D01*
X109093000Y-69564250D01*
X109251750Y-69723000D01*
X110363000Y-69723000D01*
X110363000Y-69703000D01*
X110617000Y-69703000D01*
X110617000Y-69723000D01*
X111728250Y-69723000D01*
X111887000Y-69564250D01*
X111887000Y-68961691D01*
X111790327Y-68728302D01*
X111611699Y-68549673D01*
X111378310Y-68453000D01*
X111322386Y-68453000D01*
X111673629Y-68102370D01*
X111886757Y-67589100D01*
X111887242Y-67033339D01*
X111675010Y-66519697D01*
X111282370Y-66126371D01*
X110769100Y-65913243D01*
X110213339Y-65912758D01*
X109699697Y-66124990D01*
X109306371Y-66517630D01*
X109093243Y-67030900D01*
X109092758Y-67586661D01*
X98015976Y-67586661D01*
X97925831Y-66549993D01*
X97919700Y-66528918D01*
X97920767Y-66507000D01*
X97881208Y-66396599D01*
X97848450Y-66283991D01*
X97834723Y-66266869D01*
X97827320Y-66246208D01*
X97748530Y-66159357D01*
X97675167Y-66067849D01*
X97655927Y-66057281D01*
X97641184Y-66041029D01*
X97535158Y-65990942D01*
X97432359Y-65934474D01*
X97410543Y-65932073D01*
X97390700Y-65922699D01*
X96882700Y-65795699D01*
X96865575Y-65794866D01*
X96849742Y-65788288D01*
X95584562Y-65535252D01*
X94728176Y-65351741D01*
X94525366Y-65290898D01*
X94871486Y-65226000D01*
X96774000Y-65226000D01*
X96823755Y-65216103D01*
X96874409Y-65218864D01*
X96958390Y-65189322D01*
X97045705Y-65171954D01*
X97087887Y-65143769D01*
X97135740Y-65126936D01*
X97202020Y-65067508D01*
X97276046Y-65018046D01*
X97304230Y-64975865D01*
X97342000Y-64942000D01*
X97532500Y-64688000D01*
X97570994Y-64607727D01*
X97620454Y-64533705D01*
X97630351Y-64483949D01*
X97652286Y-64438208D01*
X97657131Y-64349318D01*
X97674500Y-64262000D01*
X97674500Y-63918267D01*
X97797599Y-62748826D01*
X97796672Y-62738724D01*
X97799409Y-62728955D01*
X97860501Y-61934756D01*
X98105336Y-60465745D01*
X98402751Y-59216606D01*
X103486092Y-59216606D01*
X103576675Y-59672000D01*
X103834635Y-60058063D01*
X105994437Y-62217865D01*
X106380500Y-62475824D01*
X106835894Y-62566408D01*
X107291288Y-62475824D01*
X107677351Y-62217865D01*
X107935310Y-61831802D01*
X108025894Y-61376408D01*
X107935310Y-60921014D01*
X107677351Y-60534951D01*
X105517549Y-58375149D01*
X105131486Y-58117189D01*
X104676092Y-58026606D01*
X104220698Y-58117189D01*
X103834635Y-58375149D01*
X103576675Y-58761212D01*
X103486092Y-59216606D01*
X98402751Y-59216606D01*
X98415258Y-59164077D01*
X98726040Y-57983106D01*
X99157277Y-56627790D01*
X99528718Y-55699187D01*
X99530155Y-55691472D01*
X99534294Y-55684798D01*
X99902211Y-54703686D01*
X100507055Y-53493999D01*
X101182519Y-52388693D01*
X101682756Y-51638337D01*
X101690990Y-51618400D01*
X101705283Y-51602248D01*
X102149783Y-50840249D01*
X102165553Y-50794465D01*
X102192454Y-50754205D01*
X102210268Y-50664650D01*
X102240003Y-50578323D01*
X102237053Y-50529994D01*
X102246500Y-50482500D01*
X102228687Y-50392946D01*
X102223123Y-50301810D01*
X102201900Y-50258285D01*
X102192454Y-50210795D01*
X102141726Y-50134874D01*
X102101709Y-50052805D01*
X102065449Y-50020718D01*
X102038546Y-49980454D01*
X100863301Y-48805209D01*
X100557749Y-48412356D01*
X143167202Y-48412356D01*
X143405284Y-48914538D01*
X143817420Y-49287384D01*
X144201195Y-49446349D01*
X144421564Y-49324218D01*
X144421564Y-48191987D01*
X144675564Y-48191987D01*
X144675564Y-49324218D01*
X144895933Y-49446349D01*
X145398115Y-49208267D01*
X145770961Y-48796131D01*
X145929926Y-48412356D01*
X145807795Y-48191987D01*
X144675564Y-48191987D01*
X144421564Y-48191987D01*
X143289333Y-48191987D01*
X143167202Y-48412356D01*
X100557749Y-48412356D01*
X100520606Y-48364601D01*
X100316648Y-47752728D01*
X100083616Y-46704082D01*
X100025364Y-45539042D01*
X100092321Y-44668592D01*
X118034106Y-44668592D01*
X118124689Y-45123986D01*
X118382649Y-45510049D01*
X120542451Y-47669851D01*
X120928514Y-47927810D01*
X121383908Y-48018394D01*
X121839302Y-47927810D01*
X122225365Y-47669851D01*
X122483324Y-47283788D01*
X122573908Y-46828394D01*
X122517656Y-46545597D01*
X141355271Y-46545597D01*
X141567503Y-47059239D01*
X141960143Y-47452565D01*
X142473413Y-47665693D01*
X143029174Y-47666178D01*
X143221410Y-47586748D01*
X143167202Y-47717618D01*
X143289333Y-47937987D01*
X144241956Y-47937987D01*
X144354815Y-48050846D01*
X144534423Y-47871238D01*
X144421564Y-47758379D01*
X144421564Y-46805756D01*
X144675564Y-46805756D01*
X144675564Y-47937987D01*
X145807795Y-47937987D01*
X145929926Y-47717618D01*
X145691844Y-47215436D01*
X145279708Y-46842590D01*
X144895933Y-46683625D01*
X144675564Y-46805756D01*
X144421564Y-46805756D01*
X144201195Y-46683625D01*
X144066441Y-46747511D01*
X144149270Y-46548036D01*
X144149755Y-45992275D01*
X143937523Y-45478633D01*
X143544883Y-45085307D01*
X143031613Y-44872179D01*
X142475852Y-44871694D01*
X141962210Y-45083926D01*
X141568884Y-45476566D01*
X141355756Y-45989836D01*
X141355271Y-46545597D01*
X122517656Y-46545597D01*
X122483324Y-46373000D01*
X122225365Y-45986937D01*
X120065563Y-43827135D01*
X119679500Y-43569175D01*
X119224106Y-43478592D01*
X118768712Y-43569175D01*
X118382649Y-43827135D01*
X118124689Y-44213198D01*
X118034106Y-44668592D01*
X100092321Y-44668592D01*
X100145950Y-43971418D01*
X100324413Y-43019619D01*
X100568063Y-42105931D01*
X100804102Y-41338803D01*
X101154032Y-40580621D01*
X101447571Y-40052252D01*
X101965486Y-39246606D01*
X102147576Y-39064516D01*
X102482810Y-38896898D01*
X102861947Y-38802114D01*
X103473704Y-38746500D01*
X103942698Y-38746500D01*
X104826257Y-38923212D01*
X104826258Y-38923212D01*
X105754782Y-39108917D01*
X106417132Y-39289558D01*
X107398942Y-39596374D01*
X109016113Y-40218363D01*
X110318138Y-40776373D01*
X112585478Y-41910043D01*
X113220479Y-42227543D01*
X113311553Y-42252484D01*
X113398758Y-42288712D01*
X114033757Y-42415712D01*
X114127385Y-42415810D01*
X114220228Y-42427927D01*
X115172728Y-42364427D01*
X115210146Y-42354356D01*
X115248888Y-42355196D01*
X116328388Y-42164696D01*
X116336036Y-42161721D01*
X116344242Y-42161712D01*
X117261045Y-41978351D01*
X118549953Y-41855598D01*
X120313996Y-41729595D01*
X121444355Y-41666798D01*
X123215341Y-41603548D01*
X123215342Y-41603548D01*
X125031902Y-41540908D01*
X126912846Y-41603606D01*
X127006300Y-41588234D01*
X127100951Y-41584693D01*
X127141829Y-41565941D01*
X127186201Y-41558642D01*
X127266660Y-41508676D01*
X127352749Y-41469184D01*
X127383336Y-41436219D01*
X127421542Y-41412493D01*
X127476758Y-41335536D01*
X127541177Y-41266109D01*
X128036410Y-40461357D01*
X128650523Y-39601599D01*
X129467239Y-38533585D01*
X130351465Y-37396723D01*
X131085853Y-36478739D01*
X131639106Y-35925486D01*
X132373555Y-35453340D01*
X133372517Y-35175851D01*
X134121319Y-35060650D01*
X135250034Y-35001244D01*
X136076171Y-35056320D01*
M02*
